<svg width="35" height="35" viewBox="0 0 35 35" fill="none" xmlns="http://www.w3.org/2000/svg">
<g id="bi:send-arrow-up-fill" clip-path="url(#clip0_92_522)">
<g id="Group">
<path id="Vector" fill-rule="evenodd" clip-rule="evenodd" d="M34.6805 0.319606C34.832 0.47127 34.9355 0.664081 34.9783 0.874087C35.021 1.08409 35.0012 1.30204 34.9212 1.50086L28.4943 17.5659C27.1138 17.4034 25.7146 17.5351 24.3888 17.9523C23.0629 18.3696 21.8404 19.0629 20.8018 19.9866C19.7632 20.9103 18.932 22.0435 18.3629 23.3116C17.7937 24.5798 17.4996 25.954 17.4999 27.344C17.4999 28.4377 17.4999 30.6252 15.809 28.1315L12.3308 22.6671L1.40865 15.7152L1.40428 15.713L0.5074 15.1421C0.337655 15.034 0.201029 14.8811 0.112562 14.7004C0.0240956 14.5196 -0.0127818 14.3179 0.00598914 14.1176C0.0247601 13.9172 0.0984517 13.7259 0.218952 13.5647C0.339453 13.4035 0.502091 13.2787 0.688963 13.204L1.67771 12.8102L1.6799 12.808L33.4993 0.0767932C33.6983 -0.00297004 33.9164 -0.0224792 34.1264 0.0206912C34.3364 0.0638615 34.5291 0.167807 34.6805 0.319606ZM14.5183 22.0284L30.9115 5.63523L31.9418 3.05836L29.3649 4.08867L12.9718 20.4818L13.7112 20.9521C13.8468 21.0383 13.9619 21.1533 14.048 21.289L14.5183 22.0284Z" fill="black"/>
<path id="Vector_2" fill-rule="evenodd" clip-rule="evenodd" d="M27.3438 35C29.3743 35 31.3217 34.1934 32.7575 32.7575C34.1934 31.3217 35 29.3743 35 27.3438C35 25.3132 34.1934 23.3658 32.7575 21.93C31.3217 20.4941 29.3743 19.6875 27.3438 19.6875C25.3132 19.6875 23.3658 20.4941 21.93 21.93C20.4941 23.3658 19.6875 25.3132 19.6875 27.3438C19.6875 29.3743 20.4941 31.3217 21.93 32.7575C23.3658 34.1934 25.3132 35 27.3438 35ZM28.1181 23.2881C28.0137 23.1838 27.8892 23.1017 27.7522 23.0468C27.6152 22.9919 27.4685 22.9652 27.321 22.9685C27.1734 22.9718 27.028 23.0049 26.8936 23.0658C26.7592 23.1268 26.6385 23.2143 26.5387 23.3231L24.0253 26.0575C23.9282 26.1634 23.8529 26.2873 23.8037 26.4223C23.7545 26.5572 23.7324 26.7005 23.7386 26.8441C23.7448 26.9876 23.7792 27.1284 23.8398 27.2587C23.9005 27.3889 23.9862 27.5059 24.092 27.603C24.1979 27.7001 24.3218 27.7754 24.4568 27.8246C24.5917 27.8737 24.7351 27.8959 24.8786 27.8897C25.0221 27.8835 25.163 27.8491 25.2932 27.7884C25.4234 27.7278 25.5404 27.6421 25.6375 27.5363L26.25 26.8691V30.625C26.25 30.9151 26.3652 31.1933 26.5704 31.3984C26.7755 31.6035 27.0537 31.7188 27.3438 31.7188C27.6338 31.7188 27.912 31.6035 28.1171 31.3984C28.3223 31.1933 28.4375 30.9151 28.4375 30.625V26.7028L29.3038 27.5712C29.5091 27.7766 29.7877 27.892 30.0781 27.892C30.3686 27.892 30.6471 27.7766 30.8525 27.5712C31.0579 27.3659 31.1733 27.0873 31.1733 26.7969C31.1733 26.5064 31.0579 26.2279 30.8525 26.0225L28.1181 23.2881Z" fill="black"/>
</g>
</g>
<defs>
<clipPath id="clip0_92_522">
<rect width="35" height="35" fill="white"/>
</clipPath>
</defs>
</svg>
