<svg width="35" height="35" viewBox="0 0 35 35" fill="none" xmlns="http://www.w3.org/2000/svg">
<g id="bxs:contact">
<path id="Vector" d="M30.625 2.91675H8.74999C7.97644 2.91675 7.23458 3.22404 6.6876 3.77102C6.14061 4.318 5.83332 5.05987 5.83332 5.83341V10.2084H2.91666V13.1251H5.83332V16.0417H2.91666V18.9584H5.83332V21.8751H2.91666V24.7917H5.83332V29.1667C5.83332 29.9403 6.14061 30.6822 6.6876 31.2291C7.23458 31.7761 7.97644 32.0834 8.74999 32.0834H30.625C31.0118 32.0834 31.3827 31.9298 31.6562 31.6563C31.9297 31.3828 32.0833 31.0119 32.0833 30.6251V4.37508C32.0833 3.98831 31.9297 3.61737 31.6562 3.34388C31.3827 3.07039 31.0118 2.91675 30.625 2.91675ZM18.9583 7.29029C21.3617 7.29029 23.3333 9.2605 23.3333 11.6653C23.3291 12.8244 22.8669 13.9349 22.0473 14.7547C21.2278 15.5745 20.1175 16.0371 18.9583 16.0417C16.5564 16.0417 14.5833 14.0686 14.5833 11.6653C14.5833 9.2605 16.5564 7.29029 18.9583 7.29029ZM27.7083 26.2501H10.2083V25.1563C10.2083 21.9203 14.1531 18.5938 18.9583 18.5938C23.7635 18.5938 27.7083 21.9203 27.7083 25.1563V26.2501Z" fill="black"/>
</g>
</svg>
