<svg width="24" height="24" viewBox="0 0 24 24" fill="none" xmlns="http://www.w3.org/2000/svg">
<path fill-rule="evenodd" clip-rule="evenodd" d="M4.718 3.092C5.944 1.801 7.972 2.042 8.986 3.476L10.246 5.26C11.057 6.407 10.989 8 10.021 9.02L9.776 9.277C9.77531 9.279 9.77464 9.28099 9.774 9.283C9.761 9.319 9.729 9.435 9.761 9.655C9.828 10.11 10.179 11.036 11.607 12.539C13.039 14.047 13.907 14.402 14.31 14.468C14.4071 14.4898 14.508 14.4874 14.604 14.461L15.012 14.031C15.886 13.111 17.248 12.93 18.347 13.562L20.257 14.662C21.89 15.602 22.27 17.901 20.965 19.275L19.545 20.77C19.102 21.237 18.497 21.636 17.75 21.71C15.926 21.89 11.701 21.655 7.272 16.991C3.138 12.64 2.353 8.855 2.254 7.006C2.205 6.092 2.612 5.309 3.148 4.744L4.718 3.092ZM7.761 4.342C7.249 3.618 6.328 3.574 5.805 4.125L4.235 5.777C3.905 6.127 3.73 6.527 3.752 6.926C3.832 8.436 4.483 11.878 8.359 15.958C12.423 20.238 16.168 20.358 17.603 20.216C17.886 20.189 18.178 20.031 18.457 19.737L19.877 18.242C20.491 17.596 20.33 16.434 19.509 15.962L17.599 14.862C17.086 14.567 16.485 14.658 16.1 15.064L15.644 15.544L15.117 15.043C15.644 15.543 15.644 15.544 15.643 15.545L15.642 15.546L15.639 15.55L15.632 15.556L15.618 15.57C15.576 15.6112 15.5305 15.6487 15.482 15.682C15.402 15.738 15.296 15.801 15.161 15.854C14.885 15.963 14.521 16.021 14.07 15.948C13.192 15.806 12.042 15.175 10.52 13.572C8.992 11.964 8.407 10.765 8.277 9.872C8.21 9.418 8.263 9.055 8.361 8.78C8.4154 8.62675 8.49296 8.48275 8.591 8.353L8.621 8.316L8.635 8.301L8.641 8.294L8.644 8.291L8.646 8.29C8.646 8.29 8.646 8.288 9.179 8.793L8.647 8.288L8.934 7.986C9.379 7.517 9.444 6.723 9.022 6.126L7.761 4.342Z" fill="black"/>
<path d="M13.26 1.88C13.2921 1.6837 13.4009 1.50817 13.5623 1.39194C13.7237 1.2757 13.9246 1.22825 14.121 1.26C14.146 1.265 14.228 1.28 14.271 1.29C14.356 1.308 14.475 1.338 14.623 1.38C14.92 1.467 15.335 1.61 15.833 1.838C16.829 2.295 18.154 3.094 19.53 4.469C20.906 5.845 21.705 7.171 22.162 8.167C22.39 8.665 22.532 9.079 22.619 9.377C22.6628 9.52673 22.7005 9.67819 22.732 9.831L22.737 9.862C22.7699 10.06 22.7237 10.2631 22.6083 10.4273C22.4928 10.5916 22.3175 10.7039 22.12 10.74C21.9242 10.7718 21.7238 10.7247 21.5626 10.6091C21.4014 10.4935 21.2926 10.3187 21.26 10.123C21.2395 10.0125 21.2125 9.90329 21.179 9.796C21.0768 9.45257 20.9498 9.11702 20.799 8.792C20.409 7.942 19.707 6.768 18.469 5.53C17.232 4.292 16.057 3.591 15.207 3.201C14.8823 3.05022 14.5471 2.92322 14.204 2.821C14.0988 2.79132 13.9927 2.76464 13.886 2.741C13.6894 2.70853 13.5134 2.60004 13.3961 2.43895C13.2788 2.27786 13.2296 2.07709 13.259 1.88H13.26Z" fill="black"/>
<path fill-rule="evenodd" clip-rule="evenodd" d="M13.486 5.33C13.513 5.23524 13.5583 5.14672 13.6195 5.0695C13.6807 4.99227 13.7565 4.92786 13.8426 4.87995C13.9287 4.83203 14.0234 4.80154 14.1212 4.79023C14.2191 4.77891 14.3183 4.78699 14.413 4.814L14.207 5.535L14.414 4.815H14.416L14.42 4.816L14.427 4.818L14.447 4.825C14.5259 4.85142 14.6036 4.88111 14.68 4.914C14.826 4.976 15.025 5.072 15.27 5.217C15.76 5.507 16.427 5.987 17.212 6.773C17.997 7.558 18.479 8.226 18.768 8.715C18.913 8.96 19.009 9.159 19.072 9.305C19.1049 9.38139 19.1346 9.45912 19.161 9.538L19.167 9.558L19.169 9.566L19.17 9.569V9.571L18.45 9.778L19.171 9.572C19.227 9.76296 19.2048 9.96833 19.1093 10.1429C19.0139 10.3175 18.853 10.447 18.662 10.503C18.471 10.559 18.2657 10.5368 18.0911 10.4413C17.9165 10.3459 17.787 10.185 17.731 9.994L17.728 9.984C17.6577 9.80985 17.5741 9.64136 17.478 9.48C17.254 9.103 16.852 8.533 16.152 7.833C15.452 7.133 14.882 6.731 14.506 6.508C14.3446 6.41191 14.1761 6.32833 14.002 6.258L13.992 6.254C13.8029 6.19742 13.6438 6.06858 13.549 5.89542C13.4543 5.72227 13.4317 5.51975 13.486 5.33Z" fill="black"/>
</svg>
