<svg width="16" height="16" viewBox="0 0 16 16" fill="none" xmlns="http://www.w3.org/2000/svg">
<path d="M13.854 2.146C13.9006 2.19244 13.9375 2.24762 13.9627 2.30836C13.9879 2.36911 14.0009 2.43423 14.0009 2.5C14.0009 2.56576 13.9879 2.63089 13.9627 2.69163C13.9375 2.75238 13.9006 2.80755 13.854 2.854L10.707 6H12.503C12.6356 6 12.7628 6.05268 12.8566 6.14644C12.9503 6.24021 13.003 6.36739 13.003 6.5C13.003 6.63261 12.9503 6.75978 12.8566 6.85355C12.7628 6.94732 12.6356 7 12.503 7H9.5C9.36739 7 9.24021 6.94732 9.14644 6.85355C9.05268 6.75978 9 6.63261 9 6.5V3.5C9 3.36739 9.05268 3.24021 9.14644 3.14644C9.24021 3.05268 9.36739 3 9.5 3C9.63261 3 9.75978 3.05268 9.85355 3.14644C9.94732 3.24021 10 3.36739 10 3.5V5.293L13.147 2.146C13.2408 2.05226 13.3679 1.9996 13.5005 1.9996C13.6331 1.9996 13.7602 2.05226 13.854 2.146ZM4.374 2.12C4.78448 1.96567 5.23793 1.97109 5.64461 2.13517C6.05129 2.29924 6.38154 2.61003 6.57 3.006L7.137 4.196C7.26529 4.46574 7.31013 4.76765 7.26577 5.06303C7.22141 5.35842 7.08987 5.63384 6.888 5.854L5.572 7.291C5.68314 7.72474 5.85305 8.14127 6.077 8.529C6.30704 8.91722 6.59274 9.26964 6.925 9.575L8.802 9.086C9.06048 9.01857 9.33227 9.0214 9.5893 9.09418C9.84632 9.16696 10.0792 9.30706 10.264 9.5L11.039 10.309C11.1987 10.4757 11.3239 10.6724 11.4073 10.8876C11.4907 11.1029 11.5306 11.3326 11.5249 11.5634C11.5191 11.7942 11.4677 12.0216 11.3737 12.2324C11.2797 12.4433 11.1448 12.6335 10.977 12.792L10.681 13.072C9.555 14.135 7.801 14.362 6.546 13.319C5.606 12.537 4.478 11.439 3.628 10.106C2.688 8.629 2.248 6.876 2.04 5.556C1.803 4.05 2.76 2.726 4.111 2.219L4.374 2.12Z" fill="white"/>
</svg>
