<svg width="34" height="36" viewBox="0 0 34 36" fill="none" xmlns="http://www.w3.org/2000/svg">
<g id="ci:bulb">
<path id="Vector" d="M13.799 30.7385H22.549M18.174 4.48853C16.5957 4.48815 15.0467 4.91465 13.6911 5.72285C12.3355 6.53105 11.2237 7.69087 10.4735 9.07943C9.72335 10.468 9.3627 12.0336 9.42978 13.6104C9.49687 15.1873 9.98919 16.7166 10.8546 18.0364C12.2459 20.1539 12.94 21.2127 13.0319 21.3702C13.834 22.7775 13.6867 22.2817 13.7873 23.8989C13.799 24.0798 13.799 24.3554 13.799 24.9052C13.799 25.292 13.9526 25.6629 14.2261 25.9364C14.4996 26.2099 14.8705 26.3635 15.2573 26.3635H21.0906C21.4774 26.3635 21.8484 26.2099 22.1218 25.9364C22.3953 25.6629 22.549 25.292 22.549 24.9052C22.549 24.3554 22.549 24.0798 22.5606 23.8989C22.6627 22.2802 22.5125 22.7775 23.3161 21.3702C23.4065 21.2127 24.1036 20.1539 25.4934 18.035C26.3584 16.7152 26.8504 15.186 26.9173 13.6094C26.9841 12.0328 26.6234 10.4674 25.8733 9.07909C25.1231 7.69075 24.0115 6.53112 22.6561 5.72299C21.3007 4.91487 19.752 4.48832 18.174 4.48853Z" stroke="black" stroke-width="2" stroke-linecap="round" stroke-linejoin="round"/>
</g>
</svg>
