<svg width="17" height="18" viewBox="0 0 17 18" fill="none" xmlns="http://www.w3.org/2000/svg">
<g id="carbon:phone">
<path id="Vector" d="M13.6669 16.1186H13.5832C3.91418 15.5249 2.54132 6.81339 2.34941 4.15475C2.33395 3.94803 2.35684 3.74009 2.41676 3.54284C2.47669 3.34559 2.57248 3.1629 2.69864 3.00525C2.8248 2.8476 2.97885 2.71807 3.15197 2.6241C3.32509 2.53013 3.51388 2.47356 3.70751 2.45763H6.41878C6.61588 2.45742 6.8085 2.52042 6.97168 2.63846C7.13486 2.7565 7.26109 2.92413 7.33402 3.11966L8.08195 5.08475C8.15397 5.27576 8.17184 5.48516 8.13335 5.68693C8.09486 5.8887 8.0017 6.07395 7.86545 6.21966L6.81735 7.34932C6.98107 8.34277 7.42662 9.25854 8.09371 9.97274C8.76081 10.6869 9.61726 11.1651 10.5472 11.3425L11.615 10.2129C11.7535 10.069 11.9286 9.97184 12.1185 9.93353C12.3084 9.89522 12.5046 9.91746 12.6827 9.99746L14.5378 10.7908C14.7182 10.8712 14.8721 11.007 14.9798 11.1811C15.0876 11.3551 15.1444 11.5595 15.1431 11.7681V14.5424C15.1431 14.9604 14.9875 15.3614 14.7107 15.657C14.4339 15.9526 14.0584 16.1186 13.6669 16.1186ZM3.8256 3.50847C3.6951 3.50847 3.56994 3.56383 3.47766 3.66237C3.38538 3.7609 3.33354 3.89455 3.33354 4.0339V4.07593C3.55989 7.18644 5.01148 14.5424 13.6374 15.0678C13.702 15.0721 13.7668 15.0627 13.828 15.0401C13.8893 15.0176 13.9457 14.9824 13.9942 14.9365C14.0426 14.8906 14.0821 14.835 14.1104 14.7727C14.1387 14.7105 14.1552 14.6429 14.1589 14.5739V11.7681L12.3039 10.9747L10.8916 12.4722L10.6554 12.4407C6.37449 11.868 5.79386 7.29678 5.79386 7.24949L5.76433 6.99729L7.1618 5.48932L6.4237 3.50847H3.8256Z" fill="white"/>
</g>
</svg>
