<svg width="25" height="23" viewBox="0 0 25 23" fill="none" xmlns="http://www.w3.org/2000/svg">
<path id="Vector" d="M13.2353 23L12.8676 19.55H12.5C9.01961 19.55 6.06618 18.6012 3.63971 16.7037C1.21324 14.8062 0 12.4967 0 9.775C0 7.05333 1.21324 4.74375 3.63971 2.84625C6.06618 0.94875 9.01961 0 12.5 0C14.2402 0 15.8642 0.253767 17.3721 0.7613C18.8799 1.26883 20.2034 1.96842 21.3426 2.86005C22.4819 3.75168 23.376 4.78668 24.025 5.96505C24.674 7.14342 24.999 8.4134 25 9.775C25 11.2125 24.6995 12.5925 24.0985 13.915C23.4975 15.2375 22.6765 16.4642 21.6353 17.595C20.5941 18.7258 19.3564 19.7513 17.9221 20.6713C16.4877 21.5913 14.9255 22.3675 13.2353 23ZM12.4632 16.0713C12.8799 16.0713 13.2353 15.9562 13.5294 15.7262C13.8235 15.4962 13.9706 15.2183 13.9706 14.8925C13.9706 14.5667 13.8235 14.2888 13.5294 14.0588C13.2353 13.8288 12.8799 13.7137 12.4632 13.7137C12.0466 13.7137 11.6912 13.8288 11.3971 14.0588C11.1029 14.2888 10.9559 14.5667 10.9559 14.8925C10.9559 15.2183 11.1029 15.4962 11.3971 15.7262C11.6912 15.9562 12.0466 16.0713 12.4632 16.0713ZM11.3971 12.42H13.6029C13.6029 11.845 13.6765 11.4425 13.8235 11.2125C13.9706 10.9825 14.4363 10.5608 15.2206 9.9475C15.6618 9.6025 16.0294 9.22875 16.3235 8.82625C16.6176 8.42375 16.7647 7.9925 16.7647 7.5325C16.7647 6.555 16.3417 5.82168 15.4956 5.33255C14.6495 4.84342 13.651 4.59923 12.5 4.6C11.4216 4.6 10.5147 4.83498 9.77941 5.30495C9.04412 5.77492 8.52941 6.34493 8.23529 7.015L10.2941 7.6475C10.4167 7.32167 10.6495 7.00043 10.9926 6.6838C11.3358 6.36717 11.8382 6.20923 12.5 6.21C13.1618 6.21 13.6578 6.35375 13.9882 6.64125C14.3186 6.92875 14.4843 7.245 14.4853 7.59C14.4853 7.91583 14.3627 8.20832 14.1176 8.46745C13.8725 8.72658 13.5784 8.98993 13.2353 9.2575C12.3775 9.8325 11.8564 10.2879 11.6721 10.6237C11.4877 10.9595 11.3961 11.5583 11.3971 12.42Z" fill="black"/>
</svg>
