<svg width="31" height="31" viewBox="0 0 31 31" fill="none" xmlns="http://www.w3.org/2000/svg">
<circle cx="15.5" cy="15.5" r="15.5" fill="black"/>
<path d="M20.5 10.5H10.5C9.8125 10.5 9.25625 11.0625 9.25625 11.75L9.25 19.25C9.25 19.9375 9.8125 20.5 10.5 20.5H20.5C21.1875 20.5 21.75 19.9375 21.75 19.25V11.75C21.75 11.0625 21.1875 10.5 20.5 10.5ZM20.25 13.1562L15.8312 15.9187C15.6312 16.0438 15.3688 16.0438 15.1688 15.9187L10.75 13.1562C10.6873 13.1211 10.6324 13.0735 10.5887 13.0165C10.5449 12.9595 10.5132 12.8942 10.4954 12.8246C10.4776 12.755 10.4741 12.6825 10.4851 12.6114C10.4961 12.5404 10.5215 12.4724 10.5596 12.4114C10.5976 12.3505 10.6477 12.2979 10.7067 12.2569C10.7657 12.2158 10.8324 12.1872 10.9028 12.1727C10.9732 12.1582 11.0458 12.1581 11.1162 12.1725C11.1866 12.1868 11.2534 12.2153 11.3125 12.2562L15.5 14.875L19.6875 12.2562C19.7466 12.2153 19.8134 12.1868 19.8838 12.1725C19.9542 12.1581 20.0268 12.1582 20.0972 12.1727C20.1676 12.1872 20.2343 12.2158 20.2933 12.2569C20.3523 12.2979 20.4024 12.3505 20.4404 12.4114C20.4785 12.4724 20.5039 12.5404 20.5149 12.6114C20.5259 12.6825 20.5224 12.755 20.5046 12.8246C20.4868 12.8942 20.4551 12.9595 20.4113 13.0165C20.3676 13.0735 20.3127 13.1211 20.25 13.1562Z" fill="white"/>
</svg>
