<svg width="20" height="20" viewBox="0 0 20 20" fill="none" xmlns="http://www.w3.org/2000/svg">
<path d="M6.66669 3.33334V13.3333C6.66669 13.7754 6.84228 14.1993 7.15484 14.5118C7.4674 14.8244 7.89133 15 8.33335 15H15C15.442 15 15.866 14.8244 16.1785 14.5118C16.4911 14.1993 16.6667 13.7754 16.6667 13.3333V6.03501C16.6667 5.81297 16.6223 5.59318 16.5361 5.38854C16.45 5.1839 16.3238 4.99854 16.165 4.84334L13.4025 2.14167C13.0912 1.83722 12.673 1.66673 12.2375 1.66667H8.33335C7.89133 1.66667 7.4674 1.84227 7.15484 2.15483C6.84228 2.46739 6.66669 2.89131 6.66669 3.33334Z" stroke="white" stroke-width="2" stroke-linecap="round" stroke-linejoin="round"/>
<path d="M13.3333 15V16.6667C13.3333 17.1087 13.1577 17.5326 12.8452 17.8452C12.5326 18.1577 12.1087 18.3333 11.6667 18.3333H5.00001C4.55798 18.3333 4.13406 18.1577 3.8215 17.8452C3.50894 17.5326 3.33334 17.1087 3.33334 16.6667V7.50001C3.33334 7.05798 3.50894 6.63406 3.8215 6.3215C4.13406 6.00894 4.55798 5.83334 5.00001 5.83334H6.66668" stroke="white" stroke-width="2" stroke-linecap="round" stroke-linejoin="round"/>
</svg>
