<svg width="20" height="16" viewBox="0 0 20 16" fill="none" xmlns="http://www.w3.org/2000/svg">
<path opacity="0.5" d="M8.00089 16H12.0009C15.7719 16 17.6579 16 18.8289 14.828C20.0009 13.657 20.0009 11.771 20.0009 8C20.0009 7.558 19.9989 6.392 19.9969 6H0.000888889C-0.00111111 6.392 0.000888889 7.558 0.000888889 8C0.000888889 11.771 0.000888944 13.657 1.17189 14.828C2.34389 16 4.23089 16 8.00089 16Z" fill="black"/>
<path d="M7.99598 0H12.006C15.787 0 17.678 1.19209e-07 18.852 1.116C19.698 1.919 19.935 3.076 20.001 5V6H0.000976562V5C0.0669766 3.075 0.303976 1.92 1.14998 1.116C2.32398 1.19209e-07 4.21498 0 7.99598 0ZM10.501 11.25C10.3021 11.25 10.1113 11.329 9.97065 11.4697C9.82999 11.6103 9.75098 11.8011 9.75098 12C9.75098 12.1989 9.82999 12.3897 9.97065 12.5303C10.1113 12.671 10.3021 12.75 10.501 12.75H12.001C12.1999 12.75 12.3907 12.671 12.5313 12.5303C12.672 12.3897 12.751 12.1989 12.751 12C12.751 11.8011 12.672 11.6103 12.5313 11.4697C12.3907 11.329 12.1999 11.25 12.001 11.25H10.501ZM4.00098 11.25C3.80206 11.25 3.6113 11.329 3.47065 11.4697C3.32999 11.6103 3.25098 11.8011 3.25098 12C3.25098 12.1989 3.32999 12.3897 3.47065 12.5303C3.6113 12.671 3.80206 12.75 4.00098 12.75H8.00098C8.19989 12.75 8.39065 12.671 8.53131 12.5303C8.67196 12.3897 8.75098 12.1989 8.75098 12C8.75098 11.8011 8.67196 11.6103 8.53131 11.4697C8.39065 11.329 8.19989 11.25 8.00098 11.25H4.00098Z" fill="black"/>
</svg>
