<svg width="12" height="11" viewBox="0 0 12 11" fill="none" xmlns="http://www.w3.org/2000/svg">
<g clip-path="url(#clip0_92_493)">
<path d="M4.125 6.53881C4.182 7.19469 4.7475 7.7055 5.7615 7.766V8.25H6.2115V7.76256C7.2615 7.69519 7.875 7.18094 7.875 6.43431C7.875 5.75575 7.4055 5.40581 6.56625 5.22431L6.2115 5.14731V3.82938C6.6615 3.87613 6.948 4.10163 7.017 4.41375H7.806C7.749 3.78194 7.158 3.28763 6.2115 3.234V2.75H5.7615V3.24431C4.86525 3.32475 4.254 3.81906 4.254 4.51825C4.254 5.137 4.7085 5.53025 5.46375 5.69181L5.7615 5.75919V7.15756C5.30025 7.09363 4.995 6.86194 4.926 6.53881H4.125ZM5.75775 5.04969C5.31525 4.9555 5.07525 4.76369 5.07525 4.47494C5.07525 4.15181 5.334 3.90981 5.7615 3.839V5.049L5.75775 5.04969ZM6.27675 5.86987C6.8145 5.984 7.06275 6.16894 7.06275 6.4955C7.06275 6.86812 6.75375 7.12388 6.2115 7.17063V5.85612L6.27675 5.86987Z" fill="black"/>
<path d="M6 10.3125C4.60761 10.3125 3.27226 9.80547 2.28769 8.90295C1.30312 8.00043 0.75 6.77635 0.75 5.5C0.75 4.22365 1.30312 2.99957 2.28769 2.09705C3.27226 1.19453 4.60761 0.6875 6 0.6875C7.39239 0.6875 8.72774 1.19453 9.71231 2.09705C10.6969 2.99957 11.25 4.22365 11.25 5.5C11.25 6.77635 10.6969 8.00043 9.71231 8.90295C8.72774 9.80547 7.39239 10.3125 6 10.3125ZM6 11C7.5913 11 9.11742 10.4205 10.2426 9.38909C11.3679 8.35764 12 6.95869 12 5.5C12 4.04131 11.3679 2.64236 10.2426 1.61091C9.11742 0.579463 7.5913 0 6 0C4.4087 0 2.88258 0.579463 1.75736 1.61091C0.632141 2.64236 0 4.04131 0 5.5C0 6.95869 0.632141 8.35764 1.75736 9.38909C2.88258 10.4205 4.4087 11 6 11Z" fill="black"/>
<path d="M6 9.28125C4.90598 9.28125 3.85677 8.88287 3.08318 8.17375C2.3096 7.46463 1.875 6.50285 1.875 5.5C1.875 4.49715 2.3096 3.53537 3.08318 2.82625C3.85677 2.11713 4.90598 1.71875 6 1.71875C7.09402 1.71875 8.14323 2.11713 8.91682 2.82625C9.6904 3.53537 10.125 4.49715 10.125 5.5C10.125 6.50285 9.6904 7.46463 8.91682 8.17375C8.14323 8.88287 7.09402 9.28125 6 9.28125ZM6 9.625C6.59095 9.625 7.17611 9.5183 7.72208 9.311C8.26804 9.1037 8.76412 8.79986 9.18198 8.41682C9.59984 8.03377 9.93131 7.57904 10.1575 7.07857C10.3836 6.5781 10.5 6.0417 10.5 5.5C10.5 4.9583 10.3836 4.4219 10.1575 3.92143C9.93131 3.42096 9.59984 2.96623 9.18198 2.58318C8.76412 2.20014 8.26804 1.8963 7.72208 1.689C7.17611 1.4817 6.59095 1.375 6 1.375C4.80653 1.375 3.66193 1.8096 2.81802 2.58318C1.97411 3.35677 1.5 4.40598 1.5 5.5C1.5 6.59402 1.97411 7.64323 2.81802 8.41682C3.66193 9.1904 4.80653 9.625 6 9.625Z" fill="black"/>
</g>
<defs>
<clipPath id="clip0_92_493">
<rect width="12" height="11" fill="white"/>
</clipPath>
</defs>
</svg>
