<svg width="12" height="11" viewBox="0 0 12 11" fill="none" xmlns="http://www.w3.org/2000/svg">
<g clip-path="url(#clip0_112_1303)">
<path d="M1.84615 0V8.03846C1.84615 8.27327 1.64077 8.46154 1.38462 8.46154C1.12846 8.46154 0.923077 8.27327 0.923077 8.03846V2.96154H1.38462V2.11538H0V8.03846C0 8.73442 0.625385 9.30769 1.38462 9.30769H6C5.90769 9.05385 5.85554 8.75769 5.85554 8.46154H2.68338C2.736 8.32785 2.76969 8.18781 2.76969 8.03846V0.846154H10.1543V5.5C10.4774 5.58462 10.8005 5.71154 11.0774 5.92308V0H1.84615ZM3.69231 1.69231V3.38462H9.23077V1.69231H3.69231ZM3.69231 4.23077V5.07692H6V4.23077H3.69231ZM6.92308 4.23077V5.07692H9.23077V4.23077H6.92308ZM3.69231 5.5V6.34615H6V5.5H3.69231ZM9.23077 5.92308C7.69662 5.92308 6.46154 7.05523 6.46154 8.46154C6.46154 9.86785 7.69662 11 9.23077 11V10.1538C8.18031 10.1538 7.38462 9.42446 7.38462 8.46154C7.38462 7.49862 8.18031 6.76923 9.23077 6.76923C10.2812 6.76923 11.0769 7.49862 11.0769 8.46154C11.0769 8.82877 10.9629 9.16808 10.7594 9.44011L10.1538 8.88462L9.92308 10.7885L12 10.5769L11.4231 10.0481C11.8066 9.60638 12 9.04412 12 8.46154C12 7.05523 10.7649 5.92308 9.23077 5.92308ZM3.69231 6.76923V7.61538H6V6.76923H3.69231Z" fill="black"/>
</g>
<defs>
<clipPath id="clip0_112_1303">
<rect width="12" height="11" fill="white"/>
</clipPath>
</defs>
</svg>
