<svg width="26" height="26" viewBox="0 0 26 26" fill="none" xmlns="http://www.w3.org/2000/svg">
<path d="M2.16663 6.49992C2.16663 5.92528 2.3949 5.37418 2.80123 4.96785C3.20756 4.56153 3.75866 4.33325 4.33329 4.33325H21.6666C22.2413 4.33325 22.7924 4.56153 23.1987 4.96785C23.605 5.37418 23.8333 5.92528 23.8333 6.49992V18.4166C23.8333 18.9912 23.605 19.5423 23.1987 19.9487C22.7924 20.355 22.2413 20.5833 21.6666 20.5833H16.6985L13.7659 23.5158C13.5627 23.7189 13.2872 23.833 13 23.833C12.7127 23.833 12.4372 23.7189 12.234 23.5158L9.30146 20.5833H4.33329C3.75866 20.5833 3.20756 20.355 2.80123 19.9487C2.3949 19.5423 2.16663 18.9912 2.16663 18.4166V6.49992ZM21.6666 6.49992H4.33329V18.4166H9.74996C10.0373 18.4166 10.3128 18.5308 10.5159 18.734L13 21.2181L15.484 18.734C15.6872 18.5308 15.9627 18.4166 16.25 18.4166H21.6666V6.49992ZM6.49996 10.2916C6.49996 10.0043 6.6141 9.72872 6.81726 9.52555C7.02043 9.32239 7.29597 9.20825 7.58329 9.20825H18.4166C18.7039 9.20825 18.9795 9.32239 19.1827 9.52555C19.3858 9.72872 19.5 10.0043 19.5 10.2916C19.5 10.5789 19.3858 10.8545 19.1827 11.0576C18.9795 11.2608 18.7039 11.3749 18.4166 11.3749H7.58329C7.29597 11.3749 7.02043 11.2608 6.81726 11.0576C6.6141 10.8545 6.49996 10.5789 6.49996 10.2916ZM6.49996 14.6249C6.49996 14.3376 6.6141 14.0621 6.81726 13.8589C7.02043 13.6557 7.29597 13.5416 7.58329 13.5416H14.0833C14.3706 13.5416 14.6462 13.6557 14.8493 13.8589C15.0525 14.0621 15.1666 14.3376 15.1666 14.6249C15.1666 14.9122 15.0525 15.1878 14.8493 15.391C14.6462 15.5941 14.3706 15.7083 14.0833 15.7083H7.58329C7.29597 15.7083 7.02043 15.5941 6.81726 15.391C6.6141 15.1878 6.49996 14.9122 6.49996 14.6249Z" fill="#727272"/>
</svg>
