<svg width="26" height="26" viewBox="0 0 26 26" fill="none" xmlns="http://www.w3.org/2000/svg">
<path d="M13 20.5833C12.4254 20.5833 11.8743 20.8115 11.4679 21.2179C11.0616 21.6242 10.8333 22.1753 10.8333 22.7499C10.8333 23.3246 11.0616 23.8757 11.4679 24.282C11.8743 24.6883 12.4254 24.9166 13 24.9166C13.5746 24.9166 14.1257 24.6883 14.5321 24.282C14.9384 23.8757 15.1667 23.3246 15.1667 22.7499C15.1667 22.1753 14.9384 21.6242 14.5321 21.2179C14.1257 20.8115 13.5746 20.5833 13 20.5833ZM6.50001 1.08325C5.92537 1.08325 5.37427 1.31153 4.96795 1.71785C4.56162 2.12418 4.33334 2.67528 4.33334 3.24992C4.33334 3.82455 4.56162 4.37565 4.96795 4.78198C5.37427 5.18831 5.92537 5.41659 6.50001 5.41659C7.07465 5.41659 7.62575 5.18831 8.03208 4.78198C8.4384 4.37565 8.66668 3.82455 8.66668 3.24992C8.66668 2.67528 8.4384 2.12418 8.03208 1.71785C7.62575 1.31153 7.07465 1.08325 6.50001 1.08325ZM6.50001 7.58325C5.92537 7.58325 5.37427 7.81153 4.96795 8.21785C4.56162 8.62418 4.33334 9.17528 4.33334 9.74992C4.33334 10.3246 4.56162 10.8757 4.96795 11.282C5.37427 11.6883 5.92537 11.9166 6.50001 11.9166C7.07465 11.9166 7.62575 11.6883 8.03208 11.282C8.4384 10.8757 8.66668 10.3246 8.66668 9.74992C8.66668 9.17528 8.4384 8.62418 8.03208 8.21785C7.62575 7.81153 7.07465 7.58325 6.50001 7.58325ZM6.50001 14.0833C5.92537 14.0833 5.37427 14.3115 4.96795 14.7179C4.56162 15.1242 4.33334 15.6753 4.33334 16.2499C4.33334 16.8246 4.56162 17.3757 4.96795 17.782C5.37427 18.1883 5.92537 18.4166 6.50001 18.4166C7.07465 18.4166 7.62575 18.1883 8.03208 17.782C8.4384 17.3757 8.66668 16.8246 8.66668 16.2499C8.66668 15.6753 8.4384 15.1242 8.03208 14.7179C7.62575 14.3115 7.07465 14.0833 6.50001 14.0833ZM19.5 5.41659C20.0746 5.41659 20.6257 5.18831 21.0321 4.78198C21.4384 4.37565 21.6667 3.82455 21.6667 3.24992C21.6667 2.67528 21.4384 2.12418 21.0321 1.71785C20.6257 1.31153 20.0746 1.08325 19.5 1.08325C18.9254 1.08325 18.3743 1.31153 17.9679 1.71785C17.5616 2.12418 17.3333 2.67528 17.3333 3.24992C17.3333 3.82455 17.5616 4.37565 17.9679 4.78198C18.3743 5.18831 18.9254 5.41659 19.5 5.41659ZM13 14.0833C12.4254 14.0833 11.8743 14.3115 11.4679 14.7179C11.0616 15.1242 10.8333 15.6753 10.8333 16.2499C10.8333 16.8246 11.0616 17.3757 11.4679 17.782C11.8743 18.1883 12.4254 18.4166 13 18.4166C13.5746 18.4166 14.1257 18.1883 14.5321 17.782C14.9384 17.3757 15.1667 16.8246 15.1667 16.2499C15.1667 15.6753 14.9384 15.1242 14.5321 14.7179C14.1257 14.3115 13.5746 14.0833 13 14.0833ZM19.5 14.0833C18.9254 14.0833 18.3743 14.3115 17.9679 14.7179C17.5616 15.1242 17.3333 15.6753 17.3333 16.2499C17.3333 16.8246 17.5616 17.3757 17.9679 17.782C18.3743 18.1883 18.9254 18.4166 19.5 18.4166C20.0746 18.4166 20.6257 18.1883 21.0321 17.782C21.4384 17.3757 21.6667 16.8246 21.6667 16.2499C21.6667 15.6753 21.4384 15.1242 21.0321 14.7179C20.6257 14.3115 20.0746 14.0833 19.5 14.0833ZM19.5 7.58325C18.9254 7.58325 18.3743 7.81153 17.9679 8.21785C17.5616 8.62418 17.3333 9.17528 17.3333 9.74992C17.3333 10.3246 17.5616 10.8757 17.9679 11.282C18.3743 11.6883 18.9254 11.9166 19.5 11.9166C20.0746 11.9166 20.6257 11.6883 21.0321 11.282C21.4384 10.8757 21.6667 10.3246 21.6667 9.74992C21.6667 9.17528 21.4384 8.62418 21.0321 8.21785C20.6257 7.81153 20.0746 7.58325 19.5 7.58325ZM13 7.58325C12.4254 7.58325 11.8743 7.81153 11.4679 8.21785C11.0616 8.62418 10.8333 9.17528 10.8333 9.74992C10.8333 10.3246 11.0616 10.8757 11.4679 11.282C11.8743 11.6883 12.4254 11.9166 13 11.9166C13.5746 11.9166 14.1257 11.6883 14.5321 11.282C14.9384 10.8757 15.1667 10.3246 15.1667 9.74992C15.1667 9.17528 14.9384 8.62418 14.5321 8.21785C14.1257 7.81153 13.5746 7.58325 13 7.58325ZM13 1.08325C12.4254 1.08325 11.8743 1.31153 11.4679 1.71785C11.0616 2.12418 10.8333 2.67528 10.8333 3.24992C10.8333 3.82455 11.0616 4.37565 11.4679 4.78198C11.8743 5.18831 12.4254 5.41659 13 5.41659C13.5746 5.41659 14.1257 5.18831 14.5321 4.78198C14.9384 4.37565 15.1667 3.82455 15.1667 3.24992C15.1667 2.67528 14.9384 2.12418 14.5321 1.71785C14.1257 1.31153 13.5746 1.08325 13 1.08325Z" fill="black"/>
</svg>
