<svg width="26" height="26" viewBox="0 0 26 26" fill="none" xmlns="http://www.w3.org/2000/svg">
<path d="M10.0206 23.8333L9.5873 20.3667C9.35258 20.2764 9.13122 20.168 8.92322 20.0417C8.71522 19.9153 8.51228 19.7799 8.31439 19.6354L5.09147 20.9896L2.1123 15.8437L4.90189 13.7312C4.88383 13.6049 4.8748 13.4828 4.8748 13.3651V12.6349C4.8748 12.5172 4.88383 12.3951 4.90189 12.2687L2.1123 10.1562L5.09147 5.01041L8.31439 6.36457C8.513 6.22013 8.72064 6.08471 8.9373 5.95832C9.15397 5.83193 9.37064 5.7236 9.5873 5.63332L10.0206 2.16666H15.979L16.4123 5.63332C16.647 5.7236 16.8684 5.83193 17.0764 5.95832C17.2844 6.08471 17.4873 6.22013 17.6852 6.36457L20.9081 5.01041L23.8873 10.1562L21.0977 12.2687C21.1158 12.3951 21.1248 12.5172 21.1248 12.6349V13.3651C21.1248 13.4828 21.1067 13.6049 21.0706 13.7312L23.8602 15.8437L20.8811 20.9896L17.6852 19.6354C17.4866 19.7799 17.279 19.9153 17.0623 20.0417C16.8456 20.168 16.629 20.2764 16.4123 20.3667L15.979 23.8333H10.0206ZM13.054 16.7917C14.1012 16.7917 14.9949 16.4215 15.7352 15.6812C16.4755 14.941 16.8456 14.0472 16.8456 13C16.8456 11.9528 16.4755 11.059 15.7352 10.3187C14.9949 9.57846 14.1012 9.20832 13.054 9.20832C11.9887 9.20832 11.0902 9.57846 10.3586 10.3187C9.62703 11.059 9.26158 11.9528 9.2623 13C9.2623 14.0472 9.62775 14.941 10.3586 15.6812C11.0895 16.4215 11.988 16.7917 13.054 16.7917Z" fill="#727272"/>
</svg>
