<svg width="26" height="26" viewBox="0 0 26 26" fill="none" xmlns="http://www.w3.org/2000/svg">
<path d="M20.9841 11.0717L14.2675 2.83834C14.1159 2.64984 13.9242 2.49754 13.7063 2.39256C13.4884 2.28758 13.2498 2.23256 13.008 2.23152C12.7661 2.23048 12.5271 2.28345 12.3083 2.38656C12.0895 2.48966 11.8965 2.64031 11.7433 2.82751L5.01582 11.0717C4.61638 11.5568 4.39808 12.1658 4.39832 12.7942V21.06C4.40032 21.7777 4.6863 22.4654 5.19378 22.9729C5.70126 23.4804 6.38897 23.7663 7.10665 23.7683H18.8933C19.611 23.7663 20.2987 23.4804 20.8062 22.9729C21.3137 22.4654 21.5996 21.7777 21.6017 21.06V12.7942C21.6019 12.1658 21.3836 11.5568 20.9841 11.0717ZM10.8333 22.685V16.7267C10.8333 16.2957 11.0045 15.8824 11.3093 15.5776C11.614 15.2729 12.0273 15.1017 12.4583 15.1017H13.5416C13.9726 15.1017 14.386 15.2729 14.6907 15.5776C14.9954 15.8824 15.1666 16.2957 15.1666 16.7267V22.685H10.8333ZM20.5183 21.06C20.5152 21.49 20.343 21.9015 20.0389 22.2056C19.7348 22.5097 19.3233 22.6819 18.8933 22.685H16.25V16.7267C16.25 16.0084 15.9646 15.3195 15.4567 14.8116C14.9488 14.3037 14.2599 14.0183 13.5416 14.0183H12.4583C11.74 14.0183 11.0511 14.3037 10.5432 14.8116C10.0353 15.3195 9.74998 16.0084 9.74998 16.7267V22.685H7.10665C6.67664 22.6819 6.26512 22.5097 5.96105 22.2056C5.65697 21.9015 5.48477 21.49 5.48165 21.06V12.7942C5.47953 12.4185 5.60995 12.054 5.84998 11.765L12.5883 3.52084C12.6362 3.45687 12.6983 3.40495 12.7698 3.36922C12.8413 3.33349 12.9201 3.31492 13 3.31501C13.0816 3.31365 13.1625 3.33158 13.2359 3.36735C13.3093 3.40312 13.3732 3.45571 13.4225 3.52084L20.15 11.765C20.39 12.054 20.5204 12.4185 20.5183 12.7942V21.06Z" fill="black"/>
</svg>
