<svg width="26" height="26" viewBox="0 0 26 26" fill="none" xmlns="http://www.w3.org/2000/svg">
<path d="M20.5291 23.8334C18.2722 23.8334 16.0376 23.3459 13.8255 22.3709C11.6133 21.3959 9.60479 20.0056 7.79996 18.2001C5.9944 16.3945 4.60413 14.3904 3.62913 12.1876C2.65413 9.9848 2.16663 7.74591 2.16663 5.47091V4.33341H8.55829L9.56038 9.77716L6.47288 12.8917C6.8701 13.5959 7.31246 14.264 7.79996 14.8959C8.28746 15.5279 8.81107 16.1147 9.37079 16.6563C9.8944 17.1799 10.4678 17.6812 11.0911 18.16C11.7144 18.6388 12.3868 19.0855 13.1083 19.5001L16.25 16.3584L21.6666 17.4688V23.8334H20.5291ZM13 4.33341V2.16675H23.8333V4.33341H13ZM13 8.66675V6.50008H23.8333V8.66675H13ZM13 13.0001V10.8334H23.8333V13.0001H13Z" fill="black"/>
</svg>
