<svg width="26" height="26" viewBox="0 0 26 26" fill="none" xmlns="http://www.w3.org/2000/svg">
<path d="M6.5 10.8333H10.8333" stroke="#727272" stroke-width="1.5" stroke-linecap="round" stroke-linejoin="round"/>
<path d="M22.5691 11.9166H19.7503C17.8165 11.9166 16.25 13.3715 16.25 15.1666C16.25 16.9617 17.8176 18.4166 19.7492 18.4166H22.5691C22.6601 18.4166 22.7045 18.4166 22.7424 18.4145C23.3274 18.3787 23.7932 17.9465 23.8312 17.4037C23.8333 17.369 23.8333 17.3268 23.8333 17.2434V13.0899C23.8333 13.0065 23.8333 12.9642 23.8312 12.9295C23.7922 12.3868 23.3274 11.9545 22.7424 11.9188C22.7045 11.9166 22.6601 11.9166 22.5691 11.9166Z" stroke="#727272" stroke-width="1.5"/>
<path d="M22.7121 11.9167C22.6276 9.88867 22.3568 8.645 21.4804 7.76967C20.2118 6.5 18.1686 6.5 14.0834 6.5H10.8334C6.7481 6.5 4.70494 6.5 3.43635 7.76967C2.16669 9.03825 2.16669 11.0814 2.16669 15.1667C2.16669 19.2519 2.16669 21.2951 3.43635 22.5637C4.70494 23.8333 6.7481 23.8333 10.8334 23.8333H14.0834C18.1686 23.8333 20.2118 23.8333 21.4804 22.5637C22.3568 21.6883 22.6287 20.4447 22.7121 18.4167" stroke="#727272" stroke-width="1.5"/>
<path d="M6.5 6.49999L10.5462 3.81657C11.1153 3.44644 11.7795 3.24942 12.4583 3.24942C13.1372 3.24942 13.8014 3.44644 14.3704 3.81657L18.4167 6.49999" stroke="#727272" stroke-width="1.5" stroke-linecap="round"/>
<path d="M19.4903 15.1666H19.5003" stroke="#727272" stroke-width="2" stroke-linecap="round" stroke-linejoin="round"/>
</svg>
