<svg width="26" height="26" viewBox="0 0 26 26" fill="none" xmlns="http://www.w3.org/2000/svg">
<g id="fa:legal" clip-path="url(#clip0_138_5536)">
<path id="Vector" d="M25.6898 22.2182C25.6898 22.7401 25.5076 23.1833 25.1432 23.5477L23.5625 25.1432C23.1784 25.5076 22.7303 25.6898 22.2182 25.6898C21.6962 25.6898 21.253 25.5076 20.8886 25.1432L15.5261 19.7659C15.1519 19.4114 14.9648 18.9682 14.9648 18.4364C14.9648 17.9144 15.1765 17.4417 15.6 17.0182L11.8182 13.2364L9.9568 15.0977C9.81892 15.2356 9.6515 15.3045 9.45453 15.3045C9.25756 15.3045 9.09013 15.2356 8.95226 15.0977C8.97195 15.1174 9.0335 15.1765 9.13691 15.275C9.24032 15.3735 9.30188 15.4375 9.32157 15.467C9.34127 15.4966 9.39051 15.5532 9.4693 15.6369C9.54809 15.7206 9.59733 15.7871 9.61703 15.8364C9.63672 15.8856 9.66627 15.9521 9.70566 16.0358C9.74506 16.1195 9.77214 16.2008 9.78691 16.2795C9.80169 16.3583 9.80907 16.447 9.80907 16.5455C9.80907 16.9197 9.67119 17.2545 9.39544 17.55C9.36589 17.5795 9.28464 17.6682 9.15169 17.8159C9.01873 17.9636 8.92517 18.0646 8.87101 18.1187C8.81684 18.1729 8.72574 18.2542 8.59771 18.3625C8.46968 18.4708 8.36135 18.5472 8.27271 18.5915C8.18407 18.6358 8.07574 18.6801 7.94771 18.7244C7.81968 18.7687 7.69165 18.7909 7.56362 18.7909C7.16968 18.7909 6.83483 18.653 6.55907 18.3773L0.5318 12.35C0.256043 12.0742 0.118164 11.7394 0.118164 11.3455C0.118164 11.2174 0.140323 11.0894 0.184641 10.9614C0.22896 10.8333 0.273278 10.725 0.317596 10.6364C0.361914 10.5477 0.43824 10.4394 0.546573 10.3114C0.654907 10.1833 0.736156 10.0922 0.790323 10.0381C0.84449 9.9839 0.945437 9.89034 1.09316 9.75738C1.24089 9.62443 1.32953 9.54318 1.35907 9.51363C1.65453 9.23788 1.98938 9.1 2.36362 9.1C2.4621 9.1 2.55074 9.10738 2.62953 9.12216C2.70832 9.13693 2.78957 9.16401 2.87328 9.20341C2.95699 9.2428 3.02347 9.27235 3.07271 9.29204C3.12195 9.31174 3.18843 9.36098 3.27214 9.43977C3.35585 9.51856 3.41248 9.5678 3.44203 9.5875C3.47157 9.60719 3.53559 9.66875 3.63407 9.77216C3.73256 9.87557 3.79165 9.93712 3.81135 9.95682C3.67347 9.81894 3.60453 9.65151 3.60453 9.45454C3.60453 9.25757 3.67347 9.09015 3.81135 8.95227L8.95226 3.81136C9.09013 3.67348 9.25756 3.60454 9.45453 3.60454C9.6515 3.60454 9.81892 3.67348 9.9568 3.81136C9.9371 3.79166 9.87555 3.73257 9.77214 3.63409C9.66873 3.5356 9.60718 3.47159 9.58748 3.44204C9.56779 3.4125 9.51854 3.35587 9.43975 3.27216C9.36097 3.18844 9.31172 3.12197 9.29203 3.07272C9.27233 3.02348 9.24279 2.95701 9.20339 2.87329C9.164 2.78958 9.13691 2.70833 9.12214 2.62954C9.10737 2.55076 9.09998 2.46212 9.09998 2.36363C9.09998 1.98939 9.23786 1.65454 9.51362 1.35909C9.54316 1.32954 9.62441 1.24091 9.75737 1.09318C9.89032 0.945452 9.98388 0.844505 10.0381 0.790338C10.0922 0.736172 10.1833 0.654922 10.3113 0.546588C10.4394 0.438255 10.5477 0.361929 10.6363 0.317611C10.725 0.273293 10.8333 0.228975 10.9613 0.184657C11.0894 0.140338 11.2174 0.118179 11.3454 0.118179C11.7394 0.118179 12.0742 0.256058 12.35 0.531816L18.3773 6.55909C18.653 6.83485 18.7909 7.16969 18.7909 7.56363C18.7909 7.69166 18.7687 7.81969 18.7244 7.94772C18.6801 8.07576 18.6358 8.18409 18.5915 8.27273C18.5471 8.36136 18.4708 8.46969 18.3625 8.59772C18.2541 8.72575 18.1729 8.81685 18.1187 8.87102C18.0646 8.92519 17.9636 9.01875 17.8159 9.1517C17.6682 9.28466 17.5795 9.36591 17.55 9.39545C17.2545 9.67121 16.9197 9.80909 16.5454 9.80909C16.447 9.80909 16.3583 9.8017 16.2795 9.78693C16.2007 9.77216 16.1195 9.74507 16.0358 9.70568C15.9521 9.66629 15.8856 9.63674 15.8363 9.61704C15.7871 9.59735 15.7206 9.5481 15.6369 9.46932C15.5532 9.39053 15.4966 9.34129 15.467 9.32159C15.4375 9.30189 15.3735 9.24034 15.275 9.13693C15.1765 9.03352 15.1174 8.97197 15.0977 8.95227C15.2356 9.09015 15.3045 9.25757 15.3045 9.45454C15.3045 9.65151 15.2356 9.81894 15.0977 9.95682L13.2363 11.8182L17.0182 15.6C17.4416 15.1765 17.9144 14.9648 18.4363 14.9648C18.9485 14.9648 19.3966 15.147 19.7807 15.5114L25.1432 20.8739C25.5076 21.258 25.6898 21.7061 25.6898 22.2182Z" fill="black"/>
</g>
<defs>
<clipPath id="clip0_138_5536">
<rect width="26" height="26" fill="white"/>
</clipPath>
</defs>
</svg>
