<svg width="20" height="20" viewBox="0 0 20 20" fill="none" xmlns="http://www.w3.org/2000/svg">
<g clip-path="url(#clip0_170_6690)">
<path d="M5.33333 8H6.66667V6.66667H5.33333V8ZM13.3333 8H14.6667V6.66667H13.3333V8ZM13.4667 11.6C13.063 12.1382 12.5396 12.575 11.9379 12.8759C11.3362 13.1767 10.6727 13.3333 10 13.3333C9.32727 13.3333 8.66378 13.1767 8.06207 12.8759C7.46037 12.575 6.93697 12.1382 6.53333 11.6L5.46667 12.4C7.73333 15.4227 12.2667 15.4227 14.5333 12.4L13.4667 11.6ZM1.33333 6.66667V3.33333H0V6.66667H1.33333ZM3.33333 1.33333H6.66667V0H3.33333V1.33333ZM1.33333 3.33333C1.33333 2.8029 1.54405 2.29419 1.91912 1.91912C2.29419 1.54405 2.8029 1.33333 3.33333 1.33333V0C2.44928 0 1.60143 0.351189 0.976311 0.976311C0.351189 1.60143 0 2.44928 0 3.33333H1.33333ZM0 13.3333V16.6667H1.33333V13.3333H0ZM3.33333 20H6.66667V18.6667H3.33333V20ZM0 16.6667C0 17.5507 0.351189 18.3986 0.976311 19.0237C1.60143 19.6488 2.44928 20 3.33333 20V18.6667C2.8029 18.6667 2.29419 18.456 1.91912 18.0809C1.54405 17.7058 1.33333 17.1971 1.33333 16.6667H0ZM13.3333 1.33333H16.6667V0H13.3333V1.33333ZM18.6667 3.33333V6.66667H20V3.33333H18.6667ZM16.6667 1.33333C17.1971 1.33333 17.7058 1.54405 18.0809 1.91912C18.456 2.29419 18.6667 2.8029 18.6667 3.33333H20C20 2.44928 19.6488 1.60143 19.0237 0.976311C18.3986 0.351189 17.5507 0 16.6667 0V1.33333ZM13.3333 20H16.6667V18.6667H13.3333V20ZM20 16.6667V13.3333H18.6667V16.6667H20ZM16.6667 20C17.5507 20 18.3986 19.6488 19.0237 19.0237C19.6488 18.3986 20 17.5507 20 16.6667H18.6667C18.6667 17.1971 18.456 17.7058 18.0809 18.0809C17.7058 18.456 17.1971 18.6667 16.6667 18.6667V20Z" fill="black"/>
</g>
<defs>
<clipPath id="clip0_170_6690">
<rect width="20" height="20" fill="white"/>
</clipPath>
</defs>
</svg>
