<?xml version="1.0" encoding="utf-8"?>
<!-- Generator: Adobe Illustrator 24.0.2, SVG Export Plug-In . SVG Version: 6.00 Build 0)  -->
<svg version="1.1" id="Layer_1" xmlns="http://www.w3.org/2000/svg" xmlns:xlink="http://www.w3.org/1999/xlink" x="0px" y="0px"
	 viewBox="0 0 2000 2000" style="enable-background:new 0 0 2000 2000;" xml:space="preserve">
<style type="text/css">
	.st0{fill:#606060;}
	.st1{fill:#F2CA66;}
	.st2{fill:#737375;}
	.st3{fill:#F4F5F5;}
	.st4{fill:#EDDB9C;}
</style>
<g>
	<path class="st0" d="M1368.05,616c-1.69,14.6-8.31,23.33-24.07,25.26c-35.95,4.4-131.06-6.76-153.92-15.16
		c-14.92-5.5-22.02-17.37-20.33-31.95l0.95-8.27c1.68-14.62,6.53-25.05,25.87-23.49l154.45,17.71c11.56,2.03,19.76,12.54,18,27.64
		L1368.05,616z"/>
	<path d="M1364.3,629.05c-3.95-1.96-9.12-3.67-15.41-5.04c-25.82-5.61-131.4-17.83-170.68-18.43c-2.9-0.06-5.49,0.03-7.81,0.2
		c2.31,9.16,8.95,16.38,19.65,20.32c22.86,8.4,117.97,19.56,153.92,15.16C1354.26,640,1360.64,635.83,1364.3,629.05z"/>
	<g>
		<path class="st1" d="M1338.68,1514H661.32c-96.83,0-175.32-78.49-175.32-175.32V661.32C486,564.49,564.49,486,661.32,486h677.36
			c96.83,0,175.32,78.49,175.32,175.32v677.36C1514,1435.51,1435.51,1514,1338.68,1514z"/>
		<g>
			<g>
				<path d="M566.61,1320.97c-17.43-6.72-28.64-19.72-29.74-34.85l0,0c-1.07-14.26,6.84-28.46,21.48-39.01l0,0
					c14.7-10.64,36.39-18.23,65.34-20.42l0,0c21.23-1.59,46.4-0.23,75.7,5.2l0,0c10.36,1.92,19.7,4.15,28.65,6.39l0,0
					c16.77-20.9,26.71-44.98,24.73-70.64l0,0c-0.58-7.76-2.22-15.73-5.13-23.92l0,0c-4.05-12.07-19.77-28.69-35.35-47.48l0,0
					c-15.47-18.96-31.08-41.02-33.18-67.84l0,0c-2.02-26.21,9.91-55.08,43.87-85.73l0,0l10.33,11.38
					c-31.89,29.09-40.32,52.72-38.86,73.2l0,0c1.5,21.15,14.67,40.93,29.74,59.24l0,0c14.93,18.44,31.45,34.5,37.94,52.08l0,0
					c3.36,9.43,5.29,18.78,5.98,27.91l0,0c2.05,28.22-7.72,53.87-23.82,75.88l0,0c25,6.19,49.83,11.1,89.06,8.18l0,0
					c9.04-0.67,18.86-1.78,29.64-3.38l0,0l2.27,15.2c-11.11,1.67-21.29,2.81-30.76,3.52l0,0c-45.02,3.37-73.15-3.31-100.96-10.37
					l0,0c-7.07,7.81-14.9,15.05-23.18,21.66l0,0c-34.62,27.5-77.47,44.88-111.27,47.49l0,0
					C587.01,1325.58,575.98,1324.62,566.61,1320.97L566.61,1320.97z M700.76,1265.17c5.51-4.41,10.74-9.05,15.61-13.93l0,0
					c-6.37-1.52-12.9-2.97-19.79-4.23l0,0c-28.19-5.23-52.07-6.44-71.75-4.98l0,0c-26.86,2-45.86,9.08-57.47,17.54l0,0
					c-11.68,8.53-15.75,17.84-15.17,25.42l0,0c0.62,7.96,6.3,16.17,20.03,21.68l0,0c6.24,2.47,15.19,3.51,25.7,2.7l0,0
					C627.52,1307.24,668.71,1290.83,700.76,1265.17L700.76,1265.17z"/>
			</g>
		</g>
		<g>
			<path class="st2" d="M565.92,1312c-15.95-6.24-24.94-17.32-25.86-29.57l0,0c-1.58-23.29,25.04-48.6,81.15-52.84l0,0
				c20.61-1.54,45.26-0.25,74.12,5.09l0,0c11.54,2.14,21.93,4.71,32.04,7.27l0,0c19-22.47,30.77-49.07,28.6-78l0,0
				c-0.62-8.31-2.39-16.83-5.46-25.53l0,0c-9.98-28.8-64.38-64.75-68.19-113.72l0,0c-1.81-23.91,8.72-50.68,41.85-80.72l0,0l0,0
				l2.06,2.28c-32.7,29.72-42.54,55.44-40.85,78.22l0,0c3.36,46.99,56.93,82.42,68.01,112.92l0,0c3.17,8.94,5,17.74,5.64,26.33l0,0
				c2.1,29.5-9.57,56.39-28.35,79.07l0,0c28.41,7.22,55.3,14.01,100.17,10.65l0,0c9.21-0.69,19.19-1.8,30.09-3.43l0,0l0.45,3.05
				c-10.97,1.63-21.01,2.77-30.31,3.47l0,0c-46.08,3.45-73.65-3.76-102.61-11.12l0,0c-34.89,40.36-92.17,66.8-132.8,69.92l0,0
				C584.23,1316.16,574.03,1315.18,565.92,1312L565.92,1312z M560.83,1251.32c-12.87,9.35-18.46,20.61-17.7,30.88l0,0
				c0.82,10.81,8.71,20.95,23.91,26.93l0,0c7.49,2.95,17.28,3.94,28.42,3.1l0,0c31.27-2.31,73.13-19.1,106.19-45.51l0,0
				c8.52-6.79,16.44-14.21,23.47-22.18l0,0c-9.63-2.44-19.51-4.84-30.34-6.84l0,0c-28.64-5.31-53.03-6.59-73.34-5.06l0,0
				c-0.02,0.01-0.03,0.01-0.04,0.01l0,0C593.73,1234.73,573.67,1242.01,560.83,1251.32L560.83,1251.32z"/>
		</g>
		<path d="M1291.32,679.19c-110.15-10.96-216.14-1.1-313.47,37.32l0-0.01c-0.16,0.05-0.31,0.12-0.47,0.18
			c-0.16,0.07-0.32,0.13-0.48,0.19l0,0.01c-97.34,38.36-182.15,103.74-255.18,186.92c-13.31,75.22,24.74,127.7,27.3,130
			c2.55,2.3,116.87-134.24,116.87-134.24s-16.74-21.5,2.03-34.69c24.57-5.63,111.78-39.94,147.9-54.18
			c36.12-14.24,120.27-47.51,142.07-60.16c22.73-3.17,25.16,23.96,25.16,23.96s176.74,21.76,177.04,18.33
			C1360.39,789.39,1352.38,725.06,1291.32,679.19z"/>
		<path class="st0" d="M765.51,1062.91c11.2,9.52,22,11.39,34.84,2.03c29.27-21.33,91.17-94.38,102.14-116.14
			c7.15-14.18,4.23-27.7-6.97-37.23l-6.32-5.4c-11.2-9.53-21.88-13.84-34.94,0.5l-100.79,118.36c-7.05,9.38-5.88,22.65,5.71,32.49
			L765.51,1062.91z"/>
		<path d="M777.15,1069.88c1.56-4.11,4.16-8.89,7.83-14.2c15.03-21.72,83.85-102.71,112.16-129.97c2.09-2.02,4.03-3.72,5.84-5.18
			c4.57,8.26,4.64,18.09-0.48,28.26c-10.97,21.76-72.87,94.82-102.14,116.14C791.97,1071.05,784.46,1072.36,777.15,1069.88z"/>
		<g>
			<path class="st0" d="M940.85,1270.63c1.01,13.55-9.15,25.35-22.7,26.36l-75.13,5.62c-13.54,1.01-25.35-9.15-26.36-22.7
				l-1.38-18.4c-1.01-13.55,9.15-25.36,22.7-26.37l75.13-5.62c13.54-1.01,25.35,9.15,26.37,22.7L940.85,1270.63z"/>
			<path class="st0" d="M1329.26,1241.6c1.01,13.55-9.14,25.35-22.7,26.36l-75.12,5.61c-13.54,1.01-25.35-9.15-26.37-22.7
				l-1.37-18.4c-1.01-13.55,9.15-25.36,22.7-26.37l75.12-5.61c13.55-1.02,25.35,9.15,26.37,22.7L1329.26,1241.6z"/>
			<path class="st0" d="M1207.74,704c0,0-88.06,3.75-236.08,64.64c-148.02,60.89-163.94,108.67-163.94,108.67
				c18.3-5.72,33.75-4.57,45.71-1.24c-0.21-5.72,1.83-11.86,8.88-16.82c24.57-5.63,111.78-39.94,147.9-54.18
				c36.12-14.24,120.27-47.51,142.07-60.16c8.4-1.17,14.01,1.81,17.77,6.01C1184.78,718.67,1207.74,704,1207.74,704z"/>
			<g>
				<path class="st0" d="M878.7,919.87c-59.78-34.88-116.96-42.37-142.37-14.07c-25.42,28.29-11.87,84.35,29.2,140.05L878.7,919.87z
					"/>
			</g>
			<g>
				<path class="st0" d="M1176.71,803.18c19.88-66.29,56.56-110.79,94.44-107.45c37.89,3.33,66.24,53.53,74.25,122.28
					L1176.71,803.18z"/>
			</g>
			<path class="st0" d="M934.08,1035.15c-56.27,4.21-103.69,57.2-135.77,117.04c1.35,20.08,501.78,16.58,532.63-41.87
				c-16.84-23.32-102.53-97.18-145.35-93.97C1165.98,1017.81,996.96,1030.44,934.08,1035.15z"/>
		</g>
		<path d="M1054.31,1144.35l-251.34,16.61l6.73-14.15l1.76-0.87c105.55-51.8,94.58-192.43,86.56-295.1l-1.2-15.68
			c-0.22-2.91-0.8-10.64,30.23-12.96c24.84-1.86,28.17,4.01,28.51,8.57c0.6,8.05,8.62,64.96,11.12,82.66l160.74-12.01
			c-0.15-17.88-0.69-75.35-1.29-83.4c-0.34-4.56,2.08-10.86,26.91-12.71c31.05-2.33,31.62,5.42,31.84,8.31l1.14,15.7
			c7.34,102.72,17.4,243.4,129.47,278.94l1.88,0.6l8.76,13l-251.02,20.95l0.01,0.1l-5.68,0.46l-4.78,0.32l-10.36,0.85
			L1054.31,1144.35z"/>
		<path d="M1067.06,1164.57l-251.63-8.12c107.21-57.42,96.48-209.16,88.72-308.52c-0.41-5.15-0.8-10.2-1.16-15.09
			c2.15-1.43,10.71-3.69,22.56-4.57c12.01-0.9,18.08,0.29,19.59,1.14c1.06,11.97,11.63,86.25,12.09,89.45l0.41,2.85l2.87-0.22
			l82.28-6.15l9.71-0.72l82.28-6.16l2.87-0.21l-0.02-2.88c-0.03-3.23-0.62-78.24-1.35-90.26c1.34-1.05,7.17-3.14,19.2-4.04
			c11.85-0.89,20.65,0.07,22.98,1.17c0.37,4.9,0.73,9.94,1.1,15.09c7.1,99.42,21.06,250.92,135.63,291.76L1067.06,1164.57z"/>
		<path class="st0" d="M1331.23,1110.21c-0.07-0.9-0.48-0.1-0.76,0.41c-2.23,3.72-13.06,6.74-17.67,7.08l-207.64,15.52l-80.4,6.02
			l-207.65,15.52c-4.74,0.35-15.68,0.89-18.14-3.65c-0.03-0.65-1.21-0.63-1.15,0.23c0.2,2.64,4.07,59.49,6.03,85.73
			c1.25,16.68,22.54,15.81,38.89,14.59l189.37-14.16l0.02,0.31c8.9-0.86,15.92-1.49,20.3-1.82l39.75-2.97
			c4.37-0.33,11.4-0.74,20.35-1.21l-0.02-0.31l189.35-14.15c16.35-1.22,37.54-3.53,36.29-20.21
			C1336.18,1170.89,1331.46,1113.38,1331.23,1110.21z"/>
		<path d="M1334.77,1139.99c-0.1-0.67-0.33-0.61-0.76,0.1c-2.66,4.28-13.1,8.11-17.62,8.45l-498.88,37.3
			c-4.57,0.34-15.38-1.64-18.51-5.62c-0.48-0.61-0.99-0.78-0.94-0.11c0.17,2.28,4.43,59.25,6.41,85.73
			c1.26,16.84,22.17,16.01,38.64,14.78l462.06-34.54c16.46-1.23,37.27-3.53,36.01-20.36
			C1339.2,1199.24,1334.86,1141.17,1334.77,1139.99z"/>
		<path class="st2" d="M1167.06,1010.7c-38.13,46.89-121.74,65.32-186.74,41.18c-65.01-24.15-86.8-81.73-48.68-128.61
			c38.13-46.88,121.74-65.31,186.75-41.17C1183.39,906.25,1205.18,963.83,1167.06,1010.7z"/>
		<path class="st3" d="M1100.42,894.87l-0.08,0.01l-4.2,1.94l-0.79-1.73l5.29-2.44l2.87-0.21l1.3,17.35l-3.26,0.24L1100.42,894.87z"
			/>
		<path class="st3" d="M1041.97,901.61l-0.11-1.43l2.52-2c6.04-4.69,8.75-7.15,8.58-9.78c-0.13-1.75-1.48-3.28-5.19-3.01
			c-2.26,0.18-4.08,1.11-5.19,1.86l-1.19-1.58c1.65-1.14,4.05-2.07,6.92-2.29c5.36-0.4,7.82,2,8,4.49c0.24,3.2-2.91,6.03-7.89,9.95
			l-1.9,1.42l0,0.06l11.2-0.83l0.15,1.95L1041.97,901.61z"/>
		<path class="st3" d="M989.79,910.31c1,0.36,3.26,0.86,5.6,0.68c4.34-0.32,5.54-2.34,5.39-3.78c-0.23-2.43-3.44-3.24-6.71-2.99
			l-1.88,0.14l-0.13-1.75l1.88-0.14c2.46-0.19,5.49-1.31,5.34-3.37c-0.1-1.39-1.46-2.52-4.57-2.28c-1.99,0.15-3.86,0.9-4.9,1.51
			l-1-1.64c1.25-0.77,3.74-1.62,6.42-1.82c4.9-0.37,7.28,1.5,7.44,3.62c0.13,1.79-1.29,3.43-4.3,4.43l0,0.06
			c3.1,0.18,5.71,1.61,5.89,4.03c0.21,2.79-2.72,5.44-8.69,5.88c-2.81,0.21-5.29-0.21-6.57-0.68L989.79,910.31z"/>
		<path class="st3" d="M958.88,940.79l-0.35-4.72l-11.58,0.86l-0.11-1.55l10.29-11.91l3.64-0.28l0.8,10.8l3.5-0.26l0.14,1.84
			l-3.49,0.26l0.35,4.72L958.88,940.79z M958.39,934.23l-0.44-5.8c-0.07-0.91-0.1-1.82-0.1-2.74l-0.11,0.01
			c-0.69,1.08-1.25,1.87-1.88,2.72l-5.66,6.35l0,0.06L958.39,934.23z"/>
		<path class="st3" d="M949.86,962.76l-9.51,0.72l-0.63,4.53c0.57-0.1,1.1-0.2,2.02-0.26c1.92-0.14,3.85,0.01,5.44,0.53
			c2.01,0.62,3.73,2.01,3.9,4.2c0.26,3.39-3.42,6.21-8.83,6.62c-2.71,0.2-5.06-0.15-6.29-0.6l0.72-1.86
			c1.06,0.35,3.13,0.75,5.4,0.58c3.18-0.23,5.79-1.88,5.62-4.22c-0.21-2.24-2.47-3.69-7.45-3.32c-1.41,0.11-2.52,0.3-3.44,0.45
			l1-8.45l11.92-0.89L949.86,962.76z"/>
		<path class="st3" d="M961.81,999.71c-0.69,0.02-1.57,0.12-2.53,0.29c-5.24,1.01-7.84,3.92-8.2,6.82l0.12-0.01
			c1.1-1.18,3.11-2.25,5.86-2.46c4.42-0.33,7.68,1.65,7.94,5.05c0.24,3.18-2.64,6.35-7.82,6.73c-5.33,0.4-9.03-2.22-9.37-6.74
			c-0.26-3.41,1.3-6.25,3.63-8.13c1.97-1.58,4.66-2.66,7.78-3.15c0.99-0.19,1.83-0.28,2.44-0.32L961.81,999.71z M957.08,1014.31
			c2.87-0.22,4.7-2.03,4.52-4.52c-0.19-2.49-2.33-3.83-5.43-3.59c-2.03,0.15-3.84,1.17-4.67,2.49c-0.21,0.29-0.34,0.64-0.3,1.08
			c0.29,2.85,2.32,4.81,5.85,4.55H957.08z"/>
		<path class="st3" d="M1003.46,1023.98l0.12,1.55l-9.66,16.62l-3.49,0.26l9.65-16.17l0-0.04l-12.19,0.91l-0.15-1.95
			L1003.46,1023.98z"/>
		<path class="st3" d="M1045.83,1040.56c-2.83-0.7-4.13-2.11-4.24-3.6c-0.21-2.75,2.99-4.87,7.36-5.2c4.84-0.36,7.4,1.57,7.56,3.73
			c0.11,1.46-0.8,3.12-3.8,4.37l0,0.08c3.17,0.62,5.21,2.01,5.37,4.11c0.23,3.03-3.34,5.32-8.11,5.67c-5.21,0.4-8.52-1.53-8.71-4.06
			c-0.16-2.18,1.6-3.89,4.6-5.02L1045.83,1040.56z M1054.68,1044.55c-0.16-2.12-2.35-2.97-5.77-3.38c-2.87,0.8-4.34,2.25-4.21,3.91
			c0.01,1.77,2.04,3.18,5.22,2.94C1052.96,1047.79,1054.82,1046.31,1054.68,1044.55z M1044.75,1036.56c0.13,1.73,2.08,2.53,5,2.85
			c2.11-0.67,3.68-1.86,3.56-3.43c-0.11-1.39-1.4-2.74-4.43-2.52C1046.08,1033.66,1044.64,1035.07,1044.75,1036.56z"/>
		<path class="st3" d="M1096.85,1035.97c0.74,0,1.58-0.12,2.71-0.29c1.94-0.33,3.75-1.02,5.09-2.06c1.57-1.19,2.64-2.78,2.95-4.87
			l-0.11,0.01c-1.3,1.27-3.23,2.12-5.72,2.31c-4.49,0.34-7.54-1.81-7.76-4.77c-0.24-3.29,2.95-6.42,8.05-6.8
			c5.1-0.38,8.46,2.26,8.79,6.7c0.29,3.81-1.37,6.62-3.69,8.46c-1.83,1.46-4.41,2.46-7.08,2.87c-1.21,0.23-2.28,0.33-3.1,0.37
			L1096.85,1035.97z M1101.88,1021.3c-2.83,0.21-4.73,2.14-4.54,4.58c0.16,2.17,2.15,3.55,5.06,3.33c2.27-0.17,3.97-1.08,4.77-2.18
			c0.18-0.22,0.27-0.5,0.25-0.87c-0.22-2.96-1.96-5.12-5.49-4.86H1101.88z"/>
		<path class="st3" d="M1149.07,999.83c0.44,5.89-2.46,9.38-7.97,9.79c-4.87,0.37-8.41-2.56-8.91-8.3c-0.44-5.83,2.93-9.3,7.99-9.68
			C1145.41,991.26,1148.65,994.3,1149.07,999.83z M1135.55,1001.09c0.34,4.52,2.52,6.94,5.59,6.71c3.45-0.26,4.88-3.18,4.55-7.63
			c-0.32-4.27-2.09-6.95-5.58-6.69C1137.17,993.71,1135.2,996.38,1135.55,1001.09z"/>
		<path class="st0" d="M1117.73,873.42c-65-24.15-148.61-5.72-186.74,41.18c-38.12,46.87-16.33,104.45,48.68,128.59
			c65,24.14,148.61,5.72,186.74-41.17C1204.53,955.14,1182.74,897.56,1117.73,873.42z M1082.15,885.31
			c6.31-7.76,20.13-10.8,30.87-6.81c10.75,4,14.35,13.52,8.05,21.28c-6.31,7.75-20.13,10.8-30.88,6.79
			C1079.45,902.58,1075.85,893.05,1082.15,885.31z M938,917.6c6.31-7.74,20.13-10.8,30.87-6.8c10.75,3.99,14.36,13.51,8.05,21.27
			c-6.3,7.74-20.13,10.79-30.87,6.81C935.31,934.88,931.7,925.35,938,917.6z M920.67,962.96c0.08-8.71,10.25-16.1,22.71-16.53
			c12.46-0.41,22.49,6.32,22.41,15.03c-0.1,8.7-10.27,16.09-22.73,16.52C930.61,978.39,920.59,971.67,920.67,962.96z
			 M937.64,1007.07c-6.15-7.33-2.36-17.1,8.47-21.82c10.84-4.73,24.61-2.61,30.77,4.74c6.16,7.32,2.36,17.09-8.47,21.81
			C957.56,1016.52,943.8,1014.41,937.64,1007.07z M1015.24,1031.3c-6.31,7.74-20.13,10.79-30.87,6.81
			c-10.75-4-14.35-13.51-8.05-21.25c6.31-7.76,20.13-10.8,30.88-6.82C1017.95,1014.02,1021.55,1023.55,1015.24,1031.3z
			 M1007.3,909.71c-10.84,4.71-24.61,2.59-30.77-4.74c-6.16-7.33-2.38-17.1,8.46-21.82c10.83-4.71,24.61-2.58,30.77,4.75
			C1021.91,895.23,1018.13,904.99,1007.3,909.71z M1071.05,1031.24c-0.09,8.71-10.25,16.11-22.72,16.53
			c-12.46,0.42-22.49-6.3-22.41-15.01c0.09-8.72,10.26-16.1,22.72-16.53C1061.1,1015.8,1071.13,1022.53,1071.05,1031.24z
			 M1048.75,900.38c-12.46,0.42-22.49-6.3-22.4-15.01c0.08-8.7,10.25-16.1,22.71-16.53c12.46-0.42,22.49,6.29,22.41,15.02
			C1071.39,892.56,1061.21,899.96,1048.75,900.38z M1112.39,1033.45c-10.84,4.72-24.61,2.6-30.77-4.73
			c-6.15-7.33-2.36-17.09,8.47-21.81c10.83-4.72,24.6-2.6,30.76,4.73C1127.02,1018.97,1123.23,1028.73,1112.39,1033.45z
			 M1159.39,999.01c-6.31,7.74-20.13,10.8-30.88,6.81c-10.75-4-14.35-13.52-8.04-21.27c6.3-7.74,20.13-10.79,30.87-6.81
			C1162.09,981.73,1165.7,991.26,1159.39,999.01z"/>
		<path class="st0" d="M1117.47,869.84c-65-24.15-148.61-5.72-186.74,41.16c-38.12,46.89-16.33,104.46,48.68,128.61
			c65,24.15,148.61,5.72,186.74-41.17C1204.26,951.57,1182.47,893.99,1117.47,869.84z M1081.89,881.73
			c6.31-7.75,20.13-10.8,30.87-6.81c10.75,4,14.35,13.53,8.05,21.27c-6.31,7.75-20.13,10.8-30.88,6.81
			C1079.18,899,1075.58,889.48,1081.89,881.73z M937.74,914.03c6.3-7.76,20.13-10.8,30.87-6.81c10.75,3.99,14.36,13.51,8.05,21.27
			c-6.3,7.74-20.13,10.79-30.87,6.81C935.04,931.3,931.43,921.78,937.74,914.03z M920.4,959.38c0.09-8.71,10.25-16.11,22.72-16.53
			c12.46-0.42,22.49,6.3,22.41,15.01c-0.1,8.71-10.26,16.1-22.72,16.53C930.34,974.8,920.32,968.08,920.4,959.38z M937.37,1003.49
			c-6.16-7.33-2.36-17.11,8.47-21.82c10.84-4.71,24.61-2.58,30.77,4.74c6.15,7.33,2.36,17.1-8.47,21.82
			C957.3,1012.94,943.53,1010.83,937.37,1003.49z M1014.98,1027.73c-6.31,7.74-20.13,10.8-30.87,6.8
			c-10.75-3.98-14.36-13.51-8.06-21.25c6.31-7.76,20.13-10.8,30.89-6.81C1017.68,1010.46,1021.28,1019.97,1014.98,1027.73z
			 M1007.03,906.14c-10.84,4.71-24.61,2.58-30.76-4.74c-6.16-7.33-2.37-17.1,8.46-21.82c10.83-4.72,24.61-2.6,30.76,4.74
			S1017.86,901.42,1007.03,906.14z M1070.78,1027.66c-0.09,8.7-10.25,16.11-22.72,16.53c-12.46,0.42-22.49-6.3-22.41-15
			c0.08-8.72,10.25-16.11,22.72-16.53C1060.84,1012.23,1070.86,1018.95,1070.78,1027.66z M1048.49,896.8
			c-12.46,0.42-22.49-6.31-22.4-15c0.08-8.71,10.25-16.11,22.71-16.53c12.46-0.42,22.49,6.29,22.4,15
			C1071.12,888.97,1060.94,896.4,1048.49,896.8z M1112.13,1029.87c-10.84,4.72-24.61,2.6-30.76-4.73
			c-6.16-7.35-2.37-17.1,8.46-21.82c10.84-4.71,24.6-2.59,30.77,4.74C1126.75,1015.39,1122.96,1025.16,1112.13,1029.87z
			 M1159.12,995.43c-6.31,7.74-20.13,10.8-30.88,6.81c-10.74-4-14.34-13.51-8.04-21.28c6.3-7.74,20.12-10.8,30.87-6.8
			C1161.82,978.15,1165.43,987.66,1159.12,995.43z"/>
		<path class="st2" d="M1079.69,904.54c-30.57-11.97-69.8-3.05-87.64,19.91c-17.82,22.97-7.5,51.3,23.08,63.26
			c30.56,11.97,69.81,3.05,87.63-19.92C1120.58,944.82,1110.26,916.5,1079.69,904.54z"/>
		<path class="st0" d="M1078.62,903.47c-29.59-9.93-67.78-1.98-85.3,17.77c-17.52,19.75-7.74,43.81,21.84,53.74
			c29.58,9.93,67.77,1.98,85.29-17.78C1117.98,937.46,1108.2,913.4,1078.62,903.47z"/>
		<path class="st3" d="M997.7,925.96c16.16-18.24,51.41-25.57,78.71-16.4c16.45,5.52,26.21,15.79,27.87,27.04
			c-0.07-12.54-10.06-24.3-28.12-30.37c-27.3-9.16-62.55-1.82-78.71,16.4c-6.43,7.24-8.82,15.1-7.72,22.53
			C989.7,938.75,992.22,932.13,997.7,925.96z"/>
		<path class="st2" d="M1136.37,959.15c-5.26-2.25-7.7,0.07-7.51,2.63c0.19,2.55,4.78,3.63,6.74,4.36
			c11.56,4.39,31.27,6.91,46.95,1.03c1.71-6.42,2.48-12.84,2.33-19.2C1179.48,946.57,1160.21,969.36,1136.37,959.15z"/>
		<path class="st4" d="M1187.38,945.38c-1.67-10.28-22.86,20.71-49.93,9.13c-5.28-2.27-7.71,0.07-7.52,2.61
			c0.19,2.55,4.78,3.64,6.75,4.37c11.9,4.52,32.45,7.09,48.35,0.51c-0.53,6.72-0.53,6.72-0.53,6.72s1.81,2.51,2.3-0.18
			C1187.75,963.28,1188.15,950.17,1187.38,945.38z"/>
		<path class="st0" d="M1187.76,943.57c-1.67-10.29-22.86,20.71-49.94,9.12c-5.27-2.25-7.71,0.07-7.52,2.62
			c0.19,2.55,4.79,3.63,6.75,4.38c11.9,4.51,32.46,7.08,48.35,0.49c2.63-0.83,0.84,9.58,0.84,9.58s0.54,0.15,0.93-3.02
			C1187.84,961.42,1188.54,948.34,1187.76,943.57z"/>
	</g>
</g>
</svg>
