<svg width="15" height="15" viewBox="0 0 15 15" fill="none" xmlns="http://www.w3.org/2000/svg">
<path id="Vector" d="M13.4288 11.3372H12.2277C12.1457 11.3372 12.0688 11.3738 12.0176 11.4384C11.898 11.5866 11.7699 11.7297 11.6349 11.8657C11.0829 12.4298 10.429 12.8794 9.70947 13.1895C8.964 13.511 8.16276 13.6759 7.35353 13.6744C6.53518 13.6744 5.74246 13.5105 4.99758 13.1895C4.27803 12.8794 3.62417 12.4298 3.07216 11.8657C2.51917 11.3035 2.07822 10.6371 1.77375 9.9035C1.45768 9.14303 1.2988 8.33548 1.2988 7.50001C1.2988 6.66455 1.45939 5.85699 1.77375 5.09653C2.07785 4.36223 2.51521 3.70118 3.07216 3.13432C3.62912 2.56746 4.27662 2.12095 4.99758 1.81049C5.74246 1.48956 6.53518 1.32561 7.35353 1.32561C8.17187 1.32561 8.96459 1.48781 9.70947 1.81049C10.4304 2.12095 11.0779 2.56746 11.6349 3.13432C11.7699 3.27211 11.8963 3.41514 12.0176 3.56165C12.0688 3.62618 12.1474 3.66281 12.2277 3.66281H13.4288C13.5364 3.66281 13.603 3.54072 13.5432 3.44828C12.2328 1.36921 9.94011 -0.00695033 7.33473 2.64046e-05C3.2413 0.0104915 -0.0406226 3.40293 0.000380051 7.57676C0.0413827 11.6843 3.31818 15 7.35353 15C9.95207 15 12.2346 13.6256 13.5432 11.5518C13.6013 11.4593 13.5364 11.3372 13.4288 11.3372ZM14.9476 7.39013L12.5233 5.43665C12.4327 5.36339 12.3012 5.42967 12.3012 5.54653V6.87211H6.93666C6.86149 6.87211 6.79999 6.9349 6.79999 7.01164V7.98838C6.79999 8.06513 6.86149 8.12792 6.93666 8.12792H12.3012V9.4535C12.3012 9.57036 12.4344 9.63664 12.5233 9.56338L14.9476 7.6099C14.9639 7.59684 14.9771 7.58017 14.9862 7.56113C14.9953 7.54209 15 7.52119 15 7.50001C15 7.47884 14.9953 7.45794 14.9862 7.4389C14.9771 7.41986 14.9639 7.40318 14.9476 7.39013Z" fill="black"/>
</svg>
