<svg width="26" height="26" viewBox="0 0 26 26" fill="none" xmlns="http://www.w3.org/2000/svg">
<path id="Vector" d="M4 0V19C4 19.555 3.555 20 3 20C2.445 20 2 19.555 2 19V7H3V5H0V19C0 20.645 1.355 22 3 22H13C12.8 21.4 12.687 20.7 12.687 20H5.814C5.928 19.684 6.001 19.353 6.001 19V2H22.001V13C22.701 13.2 23.401 13.5 24.001 14V0H4ZM8 4V8H20V4H8ZM8 10V12H13V10H8ZM15 10V12H20V10H15ZM8 13V15H13V13H8ZM20 14C16.676 14 14 16.676 14 20C14 23.324 16.676 26 20 26V24C17.724 24 16 22.276 16 20C16 17.724 17.724 16 20 16C22.276 16 24 17.724 24 20C24 20.868 23.753 21.67 23.312 22.313L22 21L21.5 25.5L26 25L24.75 23.75C25.581 22.706 26 21.377 26 20C26 16.676 23.324 14 20 14ZM8 16V18H13V16H8Z" fill="black"/>
</svg>
