<svg width="30" height="29" viewBox="0 0 30 29" fill="none" xmlns="http://www.w3.org/2000/svg">
<g id="solar:card-bold-duotone">
<path id="Vector" opacity="0.5" d="M12.5 24.1668H17.5C22.2138 24.1668 24.5713 24.1668 26.035 22.7507C27.5 21.3357 27.5 19.0568 27.5 14.5002C27.5 13.9661 27.4975 12.5572 27.495 12.0835H2.50001C2.49751 12.5572 2.50001 13.9661 2.50001 14.5002C2.50001 19.0568 2.50001 21.3357 3.96376 22.7507C5.42876 24.1668 7.78751 24.1668 12.5 24.1668Z" fill="black"/>
<path id="Vector_2" d="M12.4937 4.8335H17.5063C22.2325 4.8335 24.5963 4.8335 26.0637 6.182C27.1213 7.15229 27.4175 8.55033 27.5 10.8752V12.0835H2.5V10.8752C2.5825 8.54912 2.87875 7.1535 3.93625 6.182C5.40375 4.8335 7.7675 4.8335 12.4937 4.8335ZM15.625 18.4272C15.3764 18.4272 15.1379 18.5227 14.9621 18.6927C14.7863 18.8626 14.6875 19.0931 14.6875 19.3335C14.6875 19.5738 14.7863 19.8044 14.9621 19.9743C15.1379 20.1443 15.3764 20.2397 15.625 20.2397H17.5C17.7486 20.2397 17.9871 20.1443 18.1629 19.9743C18.3387 19.8044 18.4375 19.5738 18.4375 19.3335C18.4375 19.0931 18.3387 18.8626 18.1629 18.6927C17.9871 18.5227 17.7486 18.4272 17.5 18.4272H15.625ZM7.5 18.4272C7.25136 18.4272 7.0129 18.5227 6.83709 18.6927C6.66127 18.8626 6.5625 19.0931 6.5625 19.3335C6.5625 19.5738 6.66127 19.8044 6.83709 19.9743C7.0129 20.1443 7.25136 20.2397 7.5 20.2397H12.5C12.7486 20.2397 12.9871 20.1443 13.1629 19.9743C13.3387 19.8044 13.4375 19.5738 13.4375 19.3335C13.4375 19.0931 13.3387 18.8626 13.1629 18.6927C12.9871 18.5227 12.7486 18.4272 12.5 18.4272H7.5Z" fill="black"/>
</g>
</svg>
