<svg width="31" height="28" viewBox="0 0 31 28" fill="none" xmlns="http://www.w3.org/2000/svg">
<g id="mi:message">
<path id="Vector" d="M2.58325 6.99999C2.58325 6.38115 2.85542 5.78766 3.33989 5.35007C3.82436 4.91249 4.48144 4.66666 5.16659 4.66666H25.8333C26.5184 4.66666 27.1755 4.91249 27.6599 5.35007C28.1444 5.78766 28.4166 6.38115 28.4166 6.99999V19.8333C28.4166 20.4522 28.1444 21.0457 27.6599 21.4832C27.1755 21.9208 26.5184 22.1667 25.8333 22.1667H19.9097L16.4131 25.3248C16.1709 25.5435 15.8424 25.6664 15.4999 25.6664C15.1574 25.6664 14.8289 25.5435 14.5867 25.3248L11.0902 22.1667H5.16659C4.48144 22.1667 3.82436 21.9208 3.33989 21.4832C2.85542 21.0457 2.58325 20.4522 2.58325 19.8333V6.99999ZM25.8333 6.99999H5.16659V19.8333H11.6249C11.9675 19.8334 12.2959 19.9563 12.5381 20.1752L15.4999 22.8503L18.4617 20.1752C18.7039 19.9563 19.0324 19.8334 19.3749 19.8333H25.8333V6.99999ZM7.74992 11.0833C7.74992 10.7739 7.886 10.4772 8.12824 10.2584C8.37047 10.0396 8.69901 9.91666 9.04159 9.91666H21.9583C22.3008 9.91666 22.6294 10.0396 22.8716 10.2584C23.1138 10.4772 23.2499 10.7739 23.2499 11.0833C23.2499 11.3927 23.1138 11.6895 22.8716 11.9083C22.6294 12.1271 22.3008 12.25 21.9583 12.25H9.04159C8.69901 12.25 8.37047 12.1271 8.12824 11.9083C7.886 11.6895 7.74992 11.3927 7.74992 11.0833ZM7.74992 15.75C7.74992 15.4406 7.886 15.1438 8.12824 14.925C8.37047 14.7062 8.69901 14.5833 9.04159 14.5833H16.7916C17.1342 14.5833 17.4627 14.7062 17.7049 14.925C17.9472 15.1438 18.0833 15.4406 18.0833 15.75C18.0833 16.0594 17.9472 16.3562 17.7049 16.5749C17.4627 16.7937 17.1342 16.9167 16.7916 16.9167H9.04159C8.69901 16.9167 8.37047 16.7937 8.12824 16.5749C7.886 16.3562 7.74992 16.0594 7.74992 15.75Z" fill="black"/>
</g>
</svg>
