<svg width="20" height="20" viewBox="0 0 20 20" fill="none" xmlns="http://www.w3.org/2000/svg">
<g id="fluent:number-row-20-filled">
<path id="Vector" d="M4 3C3.46957 3 2.96086 3.21071 2.58579 3.58579C2.21071 3.96086 2 4.46957 2 5V15C2 15.5304 2.21071 16.0391 2.58579 16.4142C2.96086 16.7893 3.46957 17 4 17H7C7.53043 17 8.03914 16.7893 8.41421 16.4142C8.78929 16.0391 9 15.5304 9 15V5C9 4.46957 8.78929 3.96086 8.41421 3.58579C8.03914 3.21071 7.53043 3 7 3H4ZM5 6.5C5 6.36739 5.05268 6.24021 5.14645 6.14645C5.24021 6.05268 5.36739 6 5.5 6C5.63261 6 5.75979 6.05268 5.85355 6.14645C5.94732 6.24021 6 6.36739 6 6.5V13.5C6 13.6326 5.94732 13.7598 5.85355 13.8536C5.75979 13.9473 5.63261 14 5.5 14C5.36739 14 5.24021 13.9473 5.14645 13.8536C5.05268 13.7598 5 13.6326 5 13.5V6.5ZM13 3C12.4696 3 11.9609 3.21071 11.5858 3.58579C11.2107 3.96086 11 4.46957 11 5V15C11 15.5304 11.2107 16.0391 11.5858 16.4142C11.9609 16.7893 12.4696 17 13 17H16C16.5304 17 17.0391 16.7893 17.4142 16.4142C17.7893 16.0391 18 15.5304 18 15V5C18 4.46957 17.7893 3.96086 17.4142 3.58579C17.0391 3.21071 16.5304 3 16 3H13ZM13.5 6H15.5C15.6326 6 15.7598 6.05268 15.8536 6.14645C15.9473 6.24021 16 6.36739 16 6.5V10C16 10.1326 15.9473 10.2598 15.8536 10.3536C15.7598 10.4473 15.6326 10.5 15.5 10.5H14V13H15.5C15.6326 13 15.7598 13.0527 15.8536 13.1464C15.9473 13.2402 16 13.3674 16 13.5C16 13.6326 15.9473 13.7598 15.8536 13.8536C15.7598 13.9473 15.6326 14 15.5 14H13.5C13.3674 14 13.2402 13.9473 13.1464 13.8536C13.0527 13.7598 13 13.6326 13 13.5V10C13 9.86739 13.0527 9.74021 13.1464 9.64645C13.2402 9.55268 13.3674 9.5 13.5 9.5H15V7H13.5C13.3674 7 13.2402 6.94732 13.1464 6.85355C13.0527 6.75979 13 6.63261 13 6.5C13 6.36739 13.0527 6.24021 13.1464 6.14645C13.2402 6.05268 13.3674 6 13.5 6Z" fill="black"/>
</g>
</svg>
