<svg width="24" height="24" viewBox="0 0 24 24" fill="none" xmlns="http://www.w3.org/2000/svg">
<g clip-path="url(#clip0_112_2508)">
<path d="M12.5 2C15.613 2 17.809 3.785 18.363 6.565C20.088 7.75 21 9.717 21 12C21 14.933 18.252 17.384 15.217 17.496L15 17.5H13.246L12.78 20.3C12.6931 20.7292 12.4677 21.1179 12.1383 21.4065C11.8089 21.695 11.3939 21.8674 10.957 21.897L10.8 21.9H8.12C7.8951 21.9044 7.67209 21.8581 7.46749 21.7646C7.26288 21.6712 7.08192 21.5329 6.938 21.36C6.68709 21.0623 6.56224 20.6784 6.59 20.29L6.632 20H5C3.996 20 3.086 19.136 3.006 18.143L3 18L3.01 17.859L5.003 3.905L5.006 3.857C5.078 2.963 5.821 2.175 6.701 2.025L6.857 2.005L7 2H12.5ZM18.312 9.35L18.288 9.437C17.582 11.84 15.216 13.873 12.733 13.994L12.5 14H9.997V14.05L9.972 14.233L8.772 19.233C8.76651 19.2566 8.76017 19.2799 8.753 19.303L8.665 19.9H10.819L11.414 16.336C11.4493 16.1229 11.5527 15.927 11.7086 15.7776C11.8645 15.6282 12.0646 15.5332 12.279 15.507L12.4 15.5H15C17.073 15.5 19 13.83 19 12C19 10.978 18.764 10.076 18.312 9.35Z" fill="#727272"/>
</g>
<defs>
<clipPath id="clip0_112_2508">
<rect width="24" height="24" fill="white"/>
</clipPath>
</defs>
</svg>
