<svg width="63" height="62" viewBox="0 0 63 62" fill="none" xmlns="http://www.w3.org/2000/svg">
<path d="M52.2557 62H10.7443C4.81018 62 0 57.2662 0 51.4262V10.5738C0 4.73383 4.81018 0 10.7443 0H52.2557C58.1898 0 63 4.73383 63 10.5738V51.4262C63 57.2662 58.1898 62 52.2557 62Z" fill="#FFC700"/>
<path d="M4.94011 50.3582C3.87193 49.9529 3.18494 49.1689 3.11752 48.2564C3.05195 47.3964 3.5367 46.5399 4.4339 45.9036C5.33478 45.2619 6.66403 44.8042 8.4382 44.6721C9.73926 44.5762 11.2818 44.6582 13.0774 44.9857C13.7123 45.1015 14.2847 45.236 14.8332 45.3711C15.8609 44.1106 16.4701 42.6583 16.3488 41.1107C16.3132 40.6427 16.2127 40.162 16.0344 39.6681C15.7862 38.9401 14.8228 37.9377 13.868 36.8045C12.9199 35.661 11.9633 34.3305 11.8346 32.713C11.7108 31.1322 12.4419 29.391 14.5231 27.5425L15.1562 28.2288C13.2018 29.9833 12.6852 31.4084 12.7747 32.6436C12.8666 33.9192 13.6737 35.1122 14.5973 36.2164C15.5122 37.3286 16.5246 38.2972 16.9224 39.3575C17.1283 39.9262 17.2466 40.4901 17.2888 41.0407C17.4145 42.7427 16.8157 44.2897 15.8291 45.6172C17.3612 45.9905 18.8828 46.2866 21.287 46.1105C21.841 46.0701 22.4428 46.0032 23.1035 45.9067L23.2426 46.8234C22.5617 46.9241 21.9379 46.9929 21.3575 47.0357C18.5985 47.2389 16.8746 46.8361 15.1703 46.4103C14.737 46.8813 14.2571 47.318 13.7497 47.7166C11.628 49.3752 9.00202 50.4234 6.93062 50.5808C6.19031 50.6363 5.51434 50.5784 4.94011 50.3582ZM13.1614 46.9929C13.499 46.7269 13.8196 46.4471 14.118 46.1527C13.7276 46.0611 13.3274 45.9736 12.9052 45.8976C11.1776 45.5822 9.71414 45.5092 8.50807 45.5973C6.86198 45.7179 5.69758 46.1449 4.98607 46.6551C4.27028 47.1696 4.02085 47.7311 4.05639 48.1882C4.09439 48.6683 4.44248 49.1635 5.28391 49.4958C5.66633 49.6448 6.21482 49.7075 6.85891 49.6586C8.67292 49.5302 11.1972 48.5405 13.1614 46.9929Z" fill="black"/>
<path d="M4.8978 49.8171C3.92032 49.4408 3.36938 48.7725 3.313 48.0337C3.21617 46.629 4.84755 45.1026 8.2862 44.8468C9.54926 44.754 11.0599 44.8318 12.8286 45.1538C13.5358 45.2829 14.1725 45.4379 14.7921 45.5923C15.9565 44.2371 16.6778 42.6328 16.5448 40.888C16.5068 40.3868 16.3984 39.873 16.2102 39.3483C15.5986 37.6113 12.2648 35.4431 12.0313 32.4897C11.9203 31.0476 12.5657 29.4331 14.596 27.6213L14.7222 27.7588C12.7183 29.5513 12.1152 31.1025 12.2188 32.4764C12.4247 35.3104 15.7077 37.4473 16.3867 39.2867C16.581 39.8259 16.6931 40.3567 16.7324 40.8747C16.8611 42.6539 16.1459 44.2757 14.995 45.6436C16.736 46.079 18.384 46.4885 21.1338 46.2859C21.6982 46.2443 22.3098 46.1773 22.9778 46.079L23.0054 46.263C22.3331 46.3613 21.7178 46.43 21.1479 46.4722C18.3239 46.6803 16.6343 46.2455 14.8595 45.8016C12.7213 48.2357 9.21097 49.8304 6.721 50.0185C6.01991 50.068 5.39481 50.0089 4.8978 49.8171ZM4.58587 46.1574C3.79714 46.7213 3.45456 47.4004 3.50114 48.0198C3.55139 48.6718 4.03492 49.2833 4.96644 49.644C5.42546 49.8219 6.02543 49.8816 6.70813 49.831C8.62449 49.6917 11.1898 48.679 13.2159 47.0862C13.738 46.6767 14.2234 46.2292 14.6542 45.7485C14.0641 45.6013 13.4586 45.4566 12.7949 45.336C11.0397 45.0157 9.54497 44.9385 8.30029 45.0308C8.29907 45.0314 8.29846 45.0314 8.29784 45.0314C6.60211 45.1568 5.37275 45.5959 4.58587 46.1574Z" fill="#737375"/>
<path d="M49.3533 11.6515C42.6028 10.9905 36.1073 11.5851 30.1426 13.9023V13.9017C30.1328 13.9047 30.1236 13.9089 30.1138 13.9125C30.104 13.9168 30.0941 13.9204 30.0843 13.924V13.9246C24.119 16.2381 18.9214 20.1813 14.4459 25.198C13.6302 29.7346 15.962 32.8997 16.1189 33.0385C16.2752 33.1772 23.2812 24.9423 23.2812 24.9423C23.2812 24.9423 22.2553 23.6456 23.4056 22.8501C24.9114 22.5105 30.2559 20.4412 32.4695 19.5824C34.6831 18.7236 39.8401 16.717 41.1761 15.9541C42.5691 15.7629 42.718 17.3991 42.718 17.3991C42.718 17.3991 53.5494 18.7115 53.5678 18.5046C53.5862 18.2978 53.0953 14.4179 49.3533 11.6515Z" fill="black"/>
<path d="M17.1295 34.7941C17.8159 35.3683 18.4778 35.481 19.2646 34.9165C21.0584 33.6301 24.8519 29.2244 25.5242 27.912C25.9624 27.0568 25.7834 26.2414 25.097 25.6666L24.7097 25.3409C24.0233 24.7661 23.3688 24.5062 22.5685 25.3711L16.3916 32.5095C15.9596 33.0752 16.0313 33.8756 16.7416 34.469L17.1295 34.7941Z" fill="#606060"/>
<path d="M17.8428 35.2145C17.9384 34.9666 18.0978 34.6784 18.3227 34.3581C19.2438 33.0481 23.4614 28.1635 25.1963 26.5194C25.3244 26.3976 25.4433 26.2951 25.5542 26.207C25.8343 26.7052 25.8386 27.2981 25.5248 27.9114C24.8525 29.2238 21.059 33.6301 19.2652 34.916C18.7511 35.2851 18.2908 35.3641 17.8428 35.2145Z" fill="black"/>
<path d="M27.875 47.3222C27.9369 48.1394 27.3143 48.8511 26.4839 48.912L21.8796 49.2509C21.0498 49.3119 20.3261 48.6991 20.2642 47.8819L20.1796 46.7722C20.1177 45.9549 20.7403 45.2427 21.5707 45.1817L26.175 44.8428C27.0048 44.7819 27.7286 45.3946 27.7911 46.2119L27.875 47.3222Z" fill="#606060"/>
<path d="M51.6784 45.5713C51.7403 46.3885 51.1182 47.1002 50.2872 47.1611L45.6836 47.4994C44.8538 47.5604 44.13 46.9476 44.0675 46.1304L43.9836 45.0207C43.9217 44.2034 44.5443 43.4912 45.3747 43.4302L49.9784 43.0919C50.8088 43.0304 51.5319 43.6437 51.5944 44.461L51.6784 45.5713Z" fill="#606060"/>
<path d="M44.2312 13.1477C44.2312 13.1477 38.8345 13.3739 29.7632 17.0462C20.692 20.7186 19.7163 23.6003 19.7163 23.6003C20.8378 23.2553 21.7846 23.3246 22.5176 23.5255C22.5047 23.1805 22.6298 22.8102 23.0618 22.511C24.5676 22.1715 29.9121 20.1022 32.1257 19.2434C34.3393 18.3845 39.4964 16.378 40.8323 15.615C41.3471 15.5445 41.6909 15.7242 41.9214 15.9775C42.8241 14.0325 44.2312 13.1477 44.2312 13.1477Z" fill="#606060"/>
<path d="M24.0662 26.1672C20.4027 24.0636 16.8985 23.6118 15.3412 25.3186C13.7834 27.0248 14.6138 30.4059 17.1307 33.7652L24.0662 26.1672Z" fill="#606060"/>
<path d="M42.3295 19.1295C43.5478 15.1315 45.7957 12.4476 48.1172 12.649C50.4392 12.8499 52.1766 15.8775 52.6675 20.0239L42.3295 19.1295Z" fill="#606060"/>
<path d="M27.4602 33.12C24.0117 33.3739 21.1056 36.5698 19.1396 40.1788C19.2224 41.3898 49.8907 41.1787 51.7813 37.6535C50.7493 36.2471 45.4979 31.7925 42.8737 31.9861C41.6719 32.0742 31.3137 32.8359 27.4602 33.12Z" fill="#606060"/>
<path d="M34.8283 39.7061L19.4252 40.7079L19.8376 39.8545L19.9455 39.802C26.414 36.6779 25.7418 28.1963 25.2503 22.0041L25.1767 21.0584C25.1632 20.8829 25.1277 20.4167 27.0293 20.2768C28.5516 20.1646 28.7557 20.5187 28.7765 20.7937C28.8133 21.2792 29.3048 24.7115 29.458 25.779L39.3088 25.0547C39.2996 23.9763 39.2665 20.5102 39.2298 20.0247C39.2089 19.7497 39.3572 19.3697 40.8789 19.2581C42.7818 19.1176 42.8167 19.585 42.8302 19.7593L42.9001 20.7062C43.3499 26.9014 43.9664 35.386 50.8345 37.5295L50.9497 37.5656L51.4866 38.3497L36.103 39.6132L36.1037 39.6192L35.7556 39.647L35.4626 39.6663L34.8277 39.7175L34.8283 39.7061Z" fill="black"/>
<path d="M35.6097 40.9254L20.1888 40.4357C26.7591 36.9726 26.1015 27.8209 25.6259 21.8284C25.6008 21.5178 25.5769 21.2132 25.5548 20.9183C25.6866 20.8321 26.2112 20.6958 26.9374 20.6427C27.6734 20.5884 28.0454 20.6602 28.138 20.7115C28.2029 21.4334 28.8507 25.9133 28.8789 26.1063L28.904 26.2782L29.0799 26.2649L34.1224 25.894L34.7174 25.8506L39.7599 25.4791L39.9358 25.4664L39.9345 25.2927C39.9327 25.0979 39.8965 20.5739 39.8518 19.849C39.9339 19.7857 40.2912 19.6596 41.0285 19.6053C41.7547 19.5517 42.294 19.6096 42.4368 19.6759C42.4594 19.9714 42.4815 20.2754 42.5042 20.586C42.9393 26.5822 43.7948 35.7193 50.8161 38.1824L35.6097 40.9254Z" fill="black"/>
<path d="M51.7991 37.6469C51.7948 37.5926 51.7697 37.6408 51.7525 37.6716C51.6159 37.896 50.9522 38.0781 50.6697 38.0986L37.9446 39.0346L33.0174 39.3977L20.2918 40.3337C20.0013 40.3548 19.3308 40.3874 19.1801 40.1136C19.1782 40.0744 19.1059 40.0756 19.1096 40.1275C19.1219 40.2867 19.359 43.7154 19.4791 45.298C19.5557 46.304 20.8605 46.2515 21.8625 46.1779L33.4678 45.3239L33.4691 45.3426C34.0145 45.2907 34.4447 45.2527 34.7131 45.2328L37.1492 45.0537C37.417 45.0338 37.8478 45.0091 38.3963 44.9807L38.3951 44.962L49.9992 44.1086C51.0012 44.035 52.2998 43.8957 52.2232 42.8897C52.1025 41.3066 51.8132 37.8381 51.7991 37.6469Z" fill="#606060"/>
<path d="M52.0161 39.4429C52.01 39.4024 51.9959 39.4061 51.9695 39.4489C51.8065 39.707 51.1667 39.938 50.8897 39.9585L20.3163 42.2081C20.0362 42.2286 19.3737 42.1092 19.1819 41.8692C19.1525 41.8324 19.1213 41.8221 19.1243 41.8625C19.1347 42.0001 19.3958 45.436 19.5172 47.033C19.5944 48.0487 20.8758 47.9986 21.8852 47.9244L50.2021 45.8413C51.2108 45.7671 52.4861 45.6284 52.4089 44.6133C52.2876 43.0163 52.0216 39.514 52.0161 39.4429Z" fill="black"/>
<path d="M41.7381 31.6454C39.4014 34.4734 34.2774 35.585 30.2939 34.129C26.3099 32.6725 24.9745 29.1998 27.3106 26.3724C29.6474 23.545 34.7713 22.4335 38.7554 23.8894C42.7389 25.3459 44.0743 28.8186 41.7381 31.6454Z" fill="#737375"/>
<path d="M37.6541 24.6595L37.6492 24.6601L37.3918 24.7771L37.3434 24.6728L37.6676 24.5256L37.8435 24.5129L37.9232 25.5593L37.7234 25.5738L37.6541 24.6595Z" fill="#F4F5F5"/>
<path d="M34.0721 25.066L34.0654 24.9797L34.2198 24.8591C34.59 24.5763 34.756 24.4279 34.7456 24.2693C34.7376 24.1637 34.6549 24.0715 34.4276 24.0877C34.2891 24.0986 34.1775 24.1547 34.1095 24.1999L34.0366 24.1046C34.1377 24.0359 34.2848 23.9798 34.4606 23.9665C34.7891 23.9424 34.9399 24.0871 34.9509 24.2373C34.9656 24.4303 34.7726 24.601 34.4674 24.8374L34.3509 24.9231V24.9267L35.0373 24.8766L35.0465 24.9942L34.0721 25.066Z" fill="#F4F5F5"/>
<path d="M30.8743 25.5908C30.9356 25.6125 31.0741 25.6426 31.2175 25.6318C31.4835 25.6125 31.557 25.4907 31.5478 25.4038C31.5337 25.2573 31.337 25.2084 31.1366 25.2235L31.0214 25.2319L31.0134 25.1264L31.1286 25.1179C31.2794 25.1065 31.4651 25.0389 31.4559 24.9147C31.4498 24.8309 31.3664 24.7627 31.1758 24.7772C31.0539 24.7862 30.9393 24.8315 30.8755 24.8683L30.8142 24.7693C30.8908 24.7229 31.0434 24.6716 31.2077 24.6596C31.508 24.6373 31.6538 24.75 31.6636 24.8779C31.6716 24.9859 31.5846 25.0848 31.4001 25.1451V25.1487C31.5901 25.1596 31.75 25.2458 31.7611 25.3918C31.7739 25.56 31.5944 25.7198 31.2285 25.7464C31.0563 25.7591 30.9043 25.7337 30.8259 25.7054L30.8743 25.5908Z" fill="#F4F5F5"/>
<path d="M28.98 27.4289L28.9585 27.1442L28.2489 27.1961L28.2421 27.1026L28.8727 26.3843L29.0958 26.3674L29.1448 27.0188L29.3593 27.0031L29.3679 27.1141L29.154 27.1298L29.1755 27.4144L28.98 27.4289ZM28.95 27.0333L28.923 26.6835C28.9187 26.6286 28.9169 26.5737 28.9169 26.5182L28.9101 26.5188C28.8678 26.5839 28.8335 26.6316 28.7949 26.6829L28.448 27.0658V27.0695L28.95 27.0333Z" fill="#F4F5F5"/>
<path d="M28.4272 28.7538L27.8444 28.7972L27.8058 29.0705C27.8407 29.0644 27.8732 29.0584 27.9296 29.0548C28.0473 29.0463 28.1655 29.0554 28.263 29.0867C28.3862 29.1241 28.4916 29.208 28.502 29.34C28.5179 29.5445 28.2924 29.7146 27.9609 29.7393C27.7948 29.7514 27.6508 29.7303 27.5754 29.7031L27.6195 29.5909C27.6845 29.6121 27.8113 29.6362 27.9504 29.6259C28.1453 29.6121 28.3053 29.5125 28.2949 29.3714C28.282 29.2363 28.1435 29.1489 27.8383 29.1712C27.7519 29.1778 27.6838 29.1893 27.6275 29.1983L27.6888 28.6887L28.4193 28.635L28.4272 28.7538Z" fill="#F4F5F5"/>
<path d="M29.1596 30.9825C29.1173 30.9837 29.0634 30.9897 29.0045 31C28.6834 31.0609 28.5241 31.2364 28.502 31.4113L28.5094 31.4107C28.5768 31.3395 28.6999 31.275 28.8685 31.2623C29.1393 31.2424 29.3391 31.3619 29.3551 31.5669C29.3698 31.7587 29.1933 31.9499 28.8758 31.9728C28.5492 31.9969 28.3224 31.8389 28.3016 31.5663C28.2857 31.3607 28.3813 31.1894 28.5241 31.076C28.6448 30.9807 28.8096 30.9156 29.0008 30.886C29.0615 30.8745 29.113 30.8691 29.1504 30.8667L29.1596 30.9825ZM28.8697 31.863C29.0456 31.8498 29.1577 31.7406 29.1467 31.5904C29.1351 31.4403 29.0039 31.3594 28.8139 31.3739C28.6895 31.383 28.5786 31.4445 28.5277 31.5241C28.5149 31.5416 28.5069 31.5627 28.5094 31.5892C28.5271 31.7611 28.6515 31.8793 28.8679 31.8636H28.8697V31.863Z" fill="#F4F5F5"/>
<path d="M31.712 32.4463L31.7194 32.5398L31.1274 33.5421L30.9135 33.5578L31.5049 32.5826V32.5802L30.7579 32.6351L30.7487 32.5175L31.712 32.4463Z" fill="#F4F5F5"/>
<path d="M34.3087 33.4462C34.1352 33.404 34.0556 33.3189 34.0488 33.2291C34.036 33.0632 34.2321 32.9354 34.4999 32.9155C34.7965 32.8938 34.9534 33.0102 34.9632 33.1404C34.9699 33.2285 34.9142 33.3286 34.7303 33.404V33.4088C34.9246 33.4462 35.0496 33.53 35.0594 33.6567C35.0735 33.8394 34.8547 33.9775 34.5624 33.9987C34.2431 34.0228 34.0402 33.9064 34.0286 33.7538C34.0188 33.6223 34.1267 33.5192 34.3105 33.451L34.3087 33.4462ZM34.851 33.6868C34.8412 33.559 34.707 33.5077 34.4974 33.483C34.3215 33.5312 34.2314 33.6187 34.2394 33.7188C34.24 33.8256 34.3644 33.9106 34.5593 33.8961C34.7456 33.8823 34.8596 33.793 34.851 33.6868ZM34.2425 33.205C34.2504 33.3093 34.37 33.3575 34.5489 33.3768C34.6782 33.3364 34.7744 33.2647 34.7671 33.17C34.7603 33.0861 34.6813 33.0047 34.4956 33.018C34.324 33.0301 34.2357 33.1151 34.2425 33.205Z" fill="#F4F5F5"/>
<path d="M37.4353 33.1693C37.4807 33.1693 37.5322 33.1621 37.6014 33.1518C37.7203 33.1319 37.8312 33.0903 37.9134 33.0276C38.0096 32.9558 38.0752 32.8599 38.0942 32.7339L38.0874 32.7345C38.0077 32.8111 37.8895 32.8623 37.7369 32.8738C37.4617 32.8943 37.2748 32.7647 37.2613 32.5861C37.2466 32.3877 37.4421 32.1989 37.7546 32.176C38.0672 32.1531 38.2731 32.3123 38.2933 32.5801C38.3111 32.8099 38.2094 32.9794 38.0672 33.0903C37.955 33.1784 37.7969 33.2387 37.6333 33.2634C37.5591 33.2773 37.4936 33.2833 37.4433 33.2857L37.4353 33.1693ZM37.7436 32.2846C37.5702 32.2972 37.4537 32.4136 37.4654 32.5608C37.4752 32.6917 37.5971 32.7749 37.7755 32.7616C37.9146 32.7514 38.0188 32.6965 38.0678 32.6302C38.0788 32.6169 38.0844 32.6 38.0831 32.5777C38.0696 32.3992 37.963 32.2689 37.7467 32.2846H37.7436Z" fill="#F4F5F5"/>
<path d="M40.6356 30.9898C40.6626 31.345 40.4848 31.5555 40.1472 31.5802C39.8487 31.6025 39.6318 31.4258 39.6011 31.0796C39.5742 30.728 39.7807 30.5187 40.0908 30.4958C40.4113 30.4729 40.6099 30.6562 40.6356 30.9898ZM39.807 31.0658C39.8279 31.3384 39.9615 31.4843 40.1496 31.4704C40.361 31.4548 40.4487 31.2787 40.4285 31.0103C40.4088 30.7527 40.3004 30.5911 40.0865 30.6068C39.9063 30.6207 39.7856 30.7817 39.807 31.0658Z" fill="#F4F5F5"/>
<path d="M38.715 23.3658C34.7315 21.9093 29.6076 23.0208 27.2708 25.8494C24.9346 28.6762 26.27 32.149 30.2541 33.6049C34.2376 35.0608 39.3615 33.9499 41.6983 31.1219C44.0344 28.2945 42.6991 24.8217 38.715 23.3658ZM36.5345 24.0829C36.9212 23.6149 37.7681 23.4316 38.4263 23.6722C39.0851 23.9135 39.3058 24.4876 38.9197 24.9556C38.533 25.423 37.686 25.607 37.0272 25.3651C36.369 25.1245 36.1484 24.5497 36.5345 24.0829ZM27.7004 26.0304C28.0871 25.5636 28.934 25.379 29.5922 25.6203C30.251 25.8609 30.4723 26.4351 30.0856 26.9031C29.6995 27.3699 28.8519 27.5538 28.1937 27.3138C27.5355 27.0726 27.3143 26.4978 27.7004 26.0304ZM26.6383 28.7661C26.6432 28.2408 27.2665 27.7951 28.0301 27.7692C28.7937 27.7444 29.4084 28.1503 29.4035 28.6756C29.3974 29.2003 28.7741 29.646 28.0105 29.672C27.2475 29.6967 26.6334 29.2914 26.6383 28.7661ZM27.6783 31.4264C27.3014 30.9844 27.5337 30.3951 28.1974 30.1104C28.8617 29.8252 29.7056 29.953 30.0831 30.3963C30.4606 30.8378 30.2277 31.427 29.564 31.7117C28.8991 31.9964 28.0558 31.8691 27.6783 31.4264ZM32.434 32.8878C32.0473 33.3546 31.2003 33.5385 30.5421 33.2985C29.8833 33.0573 29.6627 32.4837 30.0488 32.0169C30.4355 31.5489 31.2824 31.3655 31.9413 31.6056C32.6001 31.8456 32.8207 32.4204 32.434 32.8878ZM31.9474 25.5545C31.2831 25.8386 30.4392 25.7107 30.0617 25.2686C29.6842 24.8266 29.9158 24.2373 30.5801 23.9527C31.2438 23.6686 32.0883 23.7971 32.4658 24.2391C32.8427 24.6812 32.6111 25.2699 31.9474 25.5545ZM35.8542 32.8842C35.8487 33.4095 35.2261 33.8558 34.4619 33.8811C33.6983 33.9064 33.0836 33.5011 33.0885 32.9758C33.094 32.4499 33.7173 32.0048 34.4809 31.9789C35.2445 31.9529 35.8591 32.3588 35.8542 32.8842ZM34.4876 24.9918C33.724 25.0172 33.1093 24.6119 33.1148 24.0865C33.1197 23.5618 33.743 23.1155 34.5066 23.0896C35.2702 23.0643 35.8849 23.469 35.88 23.9955C35.8751 24.5202 35.2512 24.9665 34.4876 24.9918ZM38.3877 33.0174C37.7234 33.3021 36.8795 33.1743 36.502 32.7322C36.1251 32.2901 36.3574 31.7015 37.0211 31.4168C37.6848 31.1321 38.5287 31.26 38.9062 31.7021C39.2843 32.1441 39.052 32.7328 38.3877 33.0174ZM41.2681 30.9403C40.8814 31.4071 40.0344 31.5917 39.3756 31.351C38.7168 31.1098 38.4962 30.5356 38.8829 30.0682C39.269 29.6014 40.1165 29.4175 40.7747 29.6575C41.4335 29.8981 41.6548 30.4729 41.2681 30.9403Z" fill="#606060"/>
<path d="M38.699 23.1498C34.7156 21.6933 29.5916 22.8048 27.2549 25.6322C24.9187 28.4602 26.2541 31.9323 30.2382 33.3888C34.2216 34.8454 39.3456 33.7338 41.6824 30.9058C44.0179 28.079 42.6825 24.6063 38.699 23.1498ZM36.5186 23.8669C36.9053 23.3995 37.7522 23.2155 38.4104 23.4562C39.0692 23.6974 39.2898 24.2722 38.9037 24.739C38.517 25.2064 37.6701 25.3904 37.0113 25.1497C36.3525 24.9085 36.1319 24.3343 36.5186 23.8669ZM27.6845 25.815C28.0706 25.3469 28.9181 25.1636 29.5763 25.4042C30.2351 25.6449 30.4563 26.219 30.0696 26.6871C29.6836 27.1539 28.836 27.3378 28.1778 27.0978C27.519 26.8565 27.2978 26.2824 27.6845 25.815ZM26.6218 28.5501C26.6273 28.0248 27.25 27.5785 28.0142 27.5531C28.7778 27.5278 29.3925 27.9331 29.3876 28.4584C29.3814 28.9837 28.7588 29.4294 27.9952 29.4553C27.231 29.4801 26.6169 29.0748 26.6218 28.5501ZM27.6618 31.2104C27.2843 30.7683 27.5172 30.1785 28.1809 29.8944C28.8452 29.6103 29.6891 29.7388 30.0666 30.1803C30.4435 30.6224 30.2112 31.2116 29.5475 31.4963C28.8832 31.7803 28.0393 31.6531 27.6618 31.2104ZM32.418 32.6723C32.0313 33.1392 31.1844 33.3237 30.5262 33.0825C29.8674 32.8424 29.6462 32.2677 30.0323 31.8008C30.419 31.3328 31.2659 31.1495 31.9253 31.3901C32.5835 31.6308 32.8041 32.2043 32.418 32.6723ZM31.9308 25.3391C31.2665 25.6232 30.4226 25.4947 30.0457 25.0532C29.6682 24.6111 29.9005 24.0219 30.5642 23.7372C31.2279 23.4526 32.0724 23.5804 32.4493 24.0231C32.8262 24.4658 32.5945 25.0544 31.9308 25.3391ZM35.8377 32.6681C35.8322 33.1928 35.2095 33.6397 34.4453 33.6651C33.6817 33.6904 33.067 33.2851 33.0719 32.7604C33.0769 32.2345 33.7001 31.7888 34.4643 31.7635C35.2285 31.7375 35.8426 32.1428 35.8377 32.6681ZM34.4717 24.7758C33.7081 24.8011 33.0934 24.3952 33.0989 23.8711C33.1038 23.3458 33.7271 22.8995 34.4907 22.8742C35.2543 22.8488 35.8689 23.2535 35.8634 23.7788C35.8585 24.3036 35.2347 24.7517 34.4717 24.7758ZM38.3718 32.8014C37.7075 33.0861 36.8636 32.9582 36.4867 32.5161C36.1092 32.0729 36.3414 31.4848 37.0052 31.2001C37.6695 30.9161 38.5127 31.0439 38.8909 31.486C39.2678 31.9281 39.0355 32.5173 38.3718 32.8014ZM41.2515 30.7243C40.8648 31.1911 40.0179 31.3757 39.3591 31.135C38.7009 30.8938 38.4803 30.3202 38.8664 29.8516C39.2524 29.3848 40.0994 29.2002 40.7582 29.4415C41.417 29.6821 41.6382 30.2557 41.2515 30.7243Z" fill="#606060"/>
<path d="M36.3837 25.2426C34.5103 24.5207 32.1061 25.0586 31.0128 26.4434C29.9207 27.8287 30.5532 29.5374 32.4272 30.2587C34.3001 30.9806 36.7055 30.4426 37.7976 29.0573C38.8896 27.6719 38.2572 25.9639 36.3837 25.2426Z" fill="#737375"/>
<path d="M36.3181 25.1781C34.5047 24.5792 32.1643 25.0587 31.0906 26.2498C30.0169 27.441 30.6163 28.8921 32.429 29.4909C34.2418 30.0898 36.5823 29.6104 37.656 28.4186C38.7303 27.2281 38.1309 25.777 36.3181 25.1781Z" fill="#606060"/>
<path d="M31.359 26.5345C32.3494 25.4344 34.5097 24.9923 36.1827 25.5454C37.1908 25.8783 37.789 26.4977 37.8907 27.1762C37.8864 26.4199 37.2742 25.7106 36.1674 25.3445C34.4943 24.7921 32.3341 25.2348 31.3437 26.3336C30.9497 26.7703 30.8032 27.2443 30.8706 27.6924C30.8688 27.3059 31.0232 26.9066 31.359 26.5345Z" fill="#F4F5F5"/>
<path d="M39.8573 28.5362C39.5349 28.4005 39.3854 28.5404 39.3971 28.6948C39.4087 28.8486 39.69 28.9137 39.8101 28.9578C40.5186 29.2225 41.7265 29.3745 42.6874 29.0199C42.7922 28.6327 42.8394 28.2455 42.8302 27.8619C42.4993 27.7775 41.3183 29.152 39.8573 28.5362Z" fill="#737375"/>
<path d="M42.9834 27.7058C42.8811 27.0858 41.5824 28.9548 39.9235 28.2564C39.5999 28.1195 39.451 28.2606 39.4626 28.4138C39.4743 28.5676 39.7556 28.6334 39.8763 28.6774C40.6056 28.95 41.865 29.105 42.8394 28.7081C42.8069 29.1134 42.8069 29.1134 42.8069 29.1134C42.8069 29.1134 42.9178 29.2648 42.9479 29.1026C43.0061 28.7853 43.0306 27.9947 42.9834 27.7058Z" fill="#EDDB9C"/>
<path d="M43.0067 27.5966C42.9043 26.976 41.6057 28.8456 39.9462 28.1466C39.6232 28.0109 39.4737 28.1508 39.4853 28.3046C39.497 28.4584 39.7789 28.5236 39.899 28.5688C40.6283 28.8408 41.8883 28.9958 42.8621 28.5984C43.0232 28.5483 42.9135 29.1761 42.9135 29.1761C42.9135 29.1761 42.9466 29.1852 42.9705 28.994C43.0116 28.6731 43.0545 27.8843 43.0067 27.5966Z" fill="#606060"/>
</svg>
