<svg width="79" height="72" viewBox="0 0 79 72" fill="none" xmlns="http://www.w3.org/2000/svg">
<path d="M72.4167 24.486V24.705C72.4167 27.285 72.4167 28.578 71.7353 29.634C71.054 30.69 69.813 31.317 67.3377 32.574L64.7274 33.894C66.5246 28.35 67.127 22.392 67.3475 17.298L67.3805 16.635L67.387 16.479C69.5299 17.157 70.7347 17.664 71.4852 18.612C72.4167 19.791 72.4167 21.357 72.4167 24.486ZM6.58337 24.486V24.705C6.58337 27.285 6.58337 28.578 7.26475 29.634C7.94612 30.69 9.18708 31.317 11.6624 32.574L14.276 33.894C12.4755 28.35 11.8731 22.392 11.6525 17.298L11.6196 16.635L11.6163 16.479C9.47017 17.157 8.26542 17.664 7.51492 18.612C6.58337 19.791 6.58337 21.36 6.58337 24.486Z" fill="white"/>
<path fill-rule="evenodd" clip-rule="evenodd" d="M39.5 5.99997C45.3723 5.99997 50.2078 6.47097 53.9076 7.04097C57.6568 7.61697 59.5298 7.90497 61.0966 9.66297C62.6635 11.421 62.5779 13.32 62.4133 17.118C61.8471 30.165 58.7595 46.458 41.9687 47.898V58.5H46.6758C47.4365 58.5004 48.1735 58.7409 48.7616 59.1806C49.3497 59.6204 49.7526 60.2321 49.9017 60.912L50.5271 63.75H59.25C59.9047 63.75 60.5327 63.987 60.9957 64.409C61.4586 64.8309 61.7187 65.4032 61.7187 66C61.7187 66.5967 61.4586 67.169 60.9957 67.591C60.5327 68.0129 59.9047 68.25 59.25 68.25H19.75C19.0952 68.25 18.4673 68.0129 18.0043 67.591C17.5413 67.169 17.2812 66.5967 17.2812 66C17.2812 65.4032 17.5413 64.8309 18.0043 64.409C18.4673 63.987 19.0952 63.75 19.75 63.75H28.4729L29.0983 60.912C29.2474 60.2321 29.6503 59.6204 30.2383 59.1806C30.8264 58.7409 31.5635 58.5004 32.3242 58.5H37.0312V47.898C20.2437 46.458 17.1562 30.162 16.59 17.118C16.4221 13.32 16.3398 11.418 17.9067 9.66297C19.4702 7.90497 21.3432 7.61697 25.0924 7.04097C29.8548 6.3296 34.674 5.9814 39.5 5.99997ZM42.6337 18.597L42.3111 18.069C41.0602 16.02 40.4348 15 39.5 15C38.5652 15 37.9397 16.02 36.6889 18.069L36.3663 18.597C36.0108 19.179 35.8331 19.467 35.5566 19.659C35.2768 19.851 34.9312 19.923 34.2399 20.064L33.6145 20.196C31.1852 20.697 29.9706 20.946 29.6809 21.792C29.3913 22.641 30.2208 23.523 31.8765 25.287L32.3044 25.743C32.7751 26.244 33.0121 26.493 33.1174 26.805C33.2228 27.117 33.1866 27.45 33.1174 28.119L33.0516 28.728C32.8015 31.083 32.6764 32.262 33.4302 32.784C34.1872 33.306 35.3262 32.829 37.6007 31.875L38.1866 31.629C38.8351 31.359 39.1577 31.224 39.5 31.224C39.8423 31.224 40.1649 31.359 40.8134 31.629L41.3993 31.875C43.6738 32.832 44.8127 33.306 45.5698 32.784C46.3269 32.262 46.1985 31.083 45.9484 28.728L45.8825 28.119C45.8134 27.45 45.7772 27.117 45.8825 26.805C45.9879 26.496 46.2249 26.244 46.6956 25.743L47.1235 25.287C48.7792 23.523 49.6087 22.641 49.319 21.792C49.0294 20.946 47.8147 20.697 45.3855 20.196L44.7601 20.064C44.0688 19.923 43.7232 19.854 43.4434 19.659C43.1669 19.467 42.9892 19.179 42.6337 18.597Z" fill="white"/>
</svg>
