<svg width="24" height="24" viewBox="0 0 24 24" fill="none" xmlns="http://www.w3.org/2000/svg">
<g id="solar:phone-calling-outline">
<g id="Group">
<path id="Vector" fill-rule="evenodd" clip-rule="evenodd" d="M4.718 3.09203C5.944 1.80103 7.972 2.04203 8.986 3.47603L10.246 5.26003C11.057 6.40703 10.989 8.00003 10.021 9.02003L9.776 9.27703C9.77531 9.27902 9.77464 9.28102 9.774 9.28303C9.761 9.31903 9.729 9.43503 9.761 9.65503C9.828 10.11 10.179 11.036 11.607 12.539C13.039 14.047 13.907 14.402 14.31 14.468C14.4071 14.4898 14.508 14.4874 14.604 14.461L15.012 14.031C15.886 13.111 17.248 12.93 18.347 13.562L20.257 14.662C21.89 15.602 22.27 17.901 20.965 19.275L19.545 20.77C19.102 21.237 18.497 21.636 17.75 21.71C15.926 21.89 11.701 21.655 7.272 16.991C3.138 12.64 2.353 8.85503 2.254 7.00603C2.205 6.09203 2.612 5.30903 3.148 4.74403L4.718 3.09203ZM7.761 4.34203C7.249 3.61803 6.328 3.57403 5.805 4.12503L4.235 5.77703C3.905 6.12703 3.73 6.52703 3.752 6.92603C3.832 8.43603 4.483 11.878 8.359 15.958C12.423 20.238 16.168 20.358 17.603 20.216C17.886 20.189 18.178 20.031 18.457 19.737L19.877 18.242C20.491 17.596 20.33 16.434 19.509 15.962L17.599 14.862C17.086 14.567 16.485 14.658 16.1 15.064L15.644 15.544L15.117 15.043C15.644 15.543 15.644 15.544 15.643 15.545L15.642 15.546L15.639 15.55L15.632 15.556L15.618 15.57C15.576 15.6113 15.5305 15.6487 15.482 15.682C15.402 15.738 15.296 15.801 15.161 15.854C14.885 15.963 14.521 16.021 14.07 15.948C13.192 15.806 12.042 15.175 10.52 13.572C8.992 11.964 8.407 10.765 8.277 9.87203C8.21 9.41803 8.263 9.05503 8.361 8.78003C8.4154 8.62678 8.49296 8.48277 8.591 8.35303L8.621 8.31603L8.635 8.30103L8.641 8.29403L8.644 8.29103L8.646 8.29003C8.646 8.29003 8.646 8.28803 9.179 8.79303L8.647 8.28803L8.934 7.98603C9.379 7.51703 9.444 6.72303 9.022 6.12603L7.761 4.34203Z" fill="black"/>
<path id="Vector_2" d="M13.2599 1.88012C13.2921 1.68382 13.4008 1.50829 13.5622 1.39206C13.7236 1.27582 13.9246 1.22837 14.1209 1.26012C14.1459 1.26512 14.2279 1.28012 14.2709 1.29012C14.3559 1.30812 14.4749 1.33812 14.6229 1.38012C14.9199 1.46712 15.3349 1.61012 15.8329 1.83812C16.8289 2.29512 18.1539 3.09412 19.5299 4.46912C20.9059 5.84512 21.7049 7.17112 22.1619 8.16712C22.3899 8.66512 22.5319 9.07912 22.6189 9.37712C22.6628 9.52685 22.7005 9.67831 22.7319 9.83112L22.7369 9.86212C22.7699 10.0602 22.7236 10.2632 22.6082 10.4275C22.4928 10.5917 22.3174 10.704 22.1199 10.7401C21.9241 10.7719 21.7237 10.7248 21.5625 10.6092C21.4014 10.4936 21.2926 10.3188 21.2599 10.1231C21.2395 10.0126 21.2124 9.90341 21.1789 9.79612C21.0768 9.45269 20.9498 9.11714 20.7989 8.79212C20.4089 7.94212 19.7069 6.76812 18.4689 5.53012C17.2319 4.29212 16.0569 3.59112 15.2069 3.20112C14.8823 3.05034 14.547 2.92334 14.2039 2.82112C14.0987 2.79144 13.9927 2.76476 13.8859 2.74112C13.6893 2.70865 13.5134 2.60016 13.3961 2.43907C13.2788 2.27798 13.2295 2.07721 13.2589 1.88012H13.2599Z" fill="black"/>
<path id="Vector_3" fill-rule="evenodd" clip-rule="evenodd" d="M13.486 5.33014C13.513 5.23538 13.5584 5.14686 13.6195 5.06963C13.6807 4.99241 13.7565 4.928 13.8426 4.88008C13.9287 4.83216 14.0234 4.80168 14.1213 4.79036C14.2191 4.77905 14.3183 4.78713 14.413 4.81414L14.207 5.53514L14.414 4.81514H14.416L14.42 4.81614L14.427 4.81814L14.447 4.82514C14.5259 4.85156 14.6036 4.88125 14.68 4.91414C14.826 4.97614 15.025 5.07214 15.27 5.21714C15.76 5.50714 16.427 5.98714 17.212 6.77314C17.997 7.55814 18.479 8.22614 18.768 8.71514C18.913 8.96014 19.009 9.15914 19.072 9.30514C19.1049 9.38153 19.1346 9.45926 19.161 9.53814L19.167 9.55814L19.169 9.56614L19.17 9.56914V9.57114L18.45 9.77814L19.171 9.57214C19.227 9.7631 19.2048 9.96846 19.1093 10.1431C19.0139 10.3177 18.853 10.4472 18.662 10.5031C18.4711 10.5591 18.2657 10.5369 18.0911 10.4415C17.9165 10.346 17.787 10.1851 17.731 9.99414L17.728 9.98414C17.6577 9.80999 17.5741 9.6415 17.478 9.48014C17.254 9.10314 16.852 8.53314 16.152 7.83314C15.452 7.13314 14.882 6.73114 14.506 6.50814C14.3447 6.41205 14.1762 6.32847 14.002 6.25814L13.992 6.25414C13.8029 6.19756 13.6438 6.06872 13.549 5.89556C13.4543 5.7224 13.4317 5.51989 13.486 5.33014Z" fill="black"/>
</g>
</g>
</svg>
