<svg width="26" height="26" viewBox="0 0 26 26" fill="none" xmlns="http://www.w3.org/2000/svg">
<g id="teenyicons:password-solid" clip-path="url(#clip0_137_5454)">
<path id="Vector" d="M19.0667 19.0667H17.3334V17.3333H19.0667V19.0667ZM13.8667 19.0667H15.6V17.3333H13.8667V19.0667ZM22.5334 19.0667H20.8V17.3333H22.5334V19.0667Z" fill="black"/>
<path id="Vector_2" fill-rule="evenodd" clip-rule="evenodd" d="M5.2 10.4V6.06667C5.2 5.26998 5.35692 4.4811 5.6618 3.74505C5.96668 3.00901 6.41354 2.34023 6.97689 1.77689C7.54023 1.21354 8.20901 0.766676 8.94505 0.461797C9.6811 0.156919 10.47 0 11.2667 0C12.0634 0 12.8522 0.156919 13.5883 0.461797C14.3243 0.766676 14.9931 1.21354 15.5564 1.77689C16.1198 2.34023 16.5667 3.00901 16.8715 3.74505C17.1764 4.4811 17.3333 5.26998 17.3333 6.06667V10.4H19.9333C20.6229 10.4 21.2842 10.6739 21.7718 11.1615C22.2594 11.6491 22.5333 12.3104 22.5333 13V13.9533C23.5129 14.1522 24.3936 14.6837 25.0262 15.4576C25.6588 16.2316 26.0043 17.2004 26.0043 18.2C26.0043 19.1996 25.6588 20.1684 25.0262 20.9424C24.3936 21.7163 23.5129 22.2478 22.5333 22.4467V23.4C22.5333 24.0896 22.2594 24.7509 21.7718 25.2385C21.2842 25.7261 20.6229 26 19.9333 26H2.6C1.91044 26 1.24912 25.7261 0.761522 25.2385C0.273928 24.7509 0 24.0896 0 23.4L0 13C0 12.3104 0.273928 11.6491 0.761522 11.1615C1.24912 10.6739 1.91044 10.4 2.6 10.4H5.2ZM6.93333 6.06667C6.93333 4.9174 7.38988 3.8152 8.20254 3.00254C9.01519 2.18988 10.1174 1.73333 11.2667 1.73333C12.4159 1.73333 13.5181 2.18988 14.3308 3.00254C15.1435 3.8152 15.6 4.9174 15.6 6.06667V10.4H6.93333V6.06667ZM14.7333 15.6C14.0438 15.6 13.3825 15.8739 12.8949 16.3615C12.4073 16.8491 12.1333 17.5104 12.1333 18.2C12.1333 18.8896 12.4073 19.5509 12.8949 20.0385C13.3825 20.5261 14.0438 20.8 14.7333 20.8H21.6667C22.3562 20.8 23.0175 20.5261 23.5051 20.0385C23.9927 19.5509 24.2667 18.8896 24.2667 18.2C24.2667 17.5104 23.9927 16.8491 23.5051 16.3615C23.0175 15.8739 22.3562 15.6 21.6667 15.6H14.7333Z" fill="black"/>
</g>
<defs>
<clipPath id="clip0_137_5454">
<rect width="26" height="26" fill="white"/>
</clipPath>
</defs>
</svg>
