<svg width="35" height="35" viewBox="0 0 35 35" fill="none" xmlns="http://www.w3.org/2000/svg">
<g id="vaadin:money-exchange" clip-path="url(#clip0_92_526)">
<path id="Vector" d="M35 30.625L28.4375 35V32.8125H18.0469L22.4219 28.4375H28.4375V26.25L35 30.625ZM0 4.375L6.5625 0V2.1875H16.9531L12.5781 6.5625H6.5625V8.75L0 4.375ZM21.3062 0L0 21.3062L13.6938 35L35 13.6938L21.3062 0ZM3.04062 21.3062L21.3062 3.04062L31.9594 13.6938L13.6938 31.9594L3.04062 21.3062Z" fill="black"/>
<path id="Vector_2" d="M9.12189 21.3063L7.59064 22.8376L12.1625 27.4095L13.6938 25.8782L15.3125 27.3876L21.3063 21.3063C20.2918 22.2913 18.9304 22.8376 17.5165 22.8272C16.1025 22.8167 14.7494 22.2504 13.7496 21.2505C12.7497 20.2507 12.1834 18.8976 12.1729 17.4836C12.1625 16.0697 12.7088 14.7084 13.6938 13.6938L7.61251 19.6876L9.12189 21.3063Z" fill="black"/>
<path id="Vector_3" d="M27.3875 12.1844L22.8156 7.61255L21.2844 9.1438L19.6875 7.61255L13.6938 13.6938C14.7083 12.7088 16.0696 12.1625 17.4835 12.173C18.8975 12.1834 20.2506 12.7498 21.2505 13.7496C22.2503 14.7495 22.8166 16.1025 22.8271 17.5165C22.8375 18.9305 22.2912 20.2918 21.3063 21.3063L27.3875 15.3125L25.8563 13.7813L27.3875 12.1844Z" fill="black"/>
</g>
<defs>
<clipPath id="clip0_92_526">
<rect width="35" height="35" fill="white"/>
</clipPath>
</defs>
</svg>
